<mxfile host="app.diagrams.net" modified="2021-06-15T16:18:53.892Z" agent="5.0 (Macintosh; Intel Mac OS X 10_15_7) AppleWebKit/537.36 (KHTML, like Gecko) Chrome/91.0.4472.101 Safari/537.36" etag="MSXtGqZ_yfuMSVreHRDr" version="14.7.7" type="github" pages="3">
  <diagram id="DDAMCeywU_3dGlkvHyf0" name="firebase-v1">
    <mxGraphModel dx="1186" dy="646" grid="1" gridSize="10" guides="1" tooltips="1" connect="1" arrows="1" fold="1" page="1" pageScale="1" pageWidth="850" pageHeight="1100" background="#FFFFFF" math="0" shadow="0">
      <root>
        <mxCell id="0" />
        <mxCell id="1" parent="0" />
        <mxCell id="ZU8f28a7_l7UidNgGaAy-1" style="edgeStyle=none;rounded=0;orthogonalLoop=1;jettySize=auto;html=1;fontFamily=SF Mono;endArrow=none;endFill=0;" parent="1" source="ZU8f28a7_l7UidNgGaAy-2" target="ZU8f28a7_l7UidNgGaAy-10" edge="1">
          <mxGeometry relative="1" as="geometry" />
        </mxCell>
        <mxCell id="ZU8f28a7_l7UidNgGaAy-2" value="clients" style="rounded=0;whiteSpace=wrap;html=1;fontFamily=SF Mono;" parent="1" vertex="1">
          <mxGeometry x="240" y="120" width="80" height="40" as="geometry" />
        </mxCell>
        <mxCell id="ZU8f28a7_l7UidNgGaAy-3" style="rounded=0;orthogonalLoop=1;jettySize=auto;html=1;fontFamily=SF Mono;endArrow=none;endFill=0;" parent="1" source="ZU8f28a7_l7UidNgGaAy-6" target="ZU8f28a7_l7UidNgGaAy-8" edge="1">
          <mxGeometry relative="1" as="geometry" />
        </mxCell>
        <mxCell id="ZU8f28a7_l7UidNgGaAy-4" style="edgeStyle=none;rounded=0;orthogonalLoop=1;jettySize=auto;html=1;fontFamily=SF Mono;endArrow=none;endFill=0;" parent="1" source="ZU8f28a7_l7UidNgGaAy-6" target="ZU8f28a7_l7UidNgGaAy-7" edge="1">
          <mxGeometry relative="1" as="geometry" />
        </mxCell>
        <mxCell id="ZU8f28a7_l7UidNgGaAy-5" style="edgeStyle=none;rounded=0;orthogonalLoop=1;jettySize=auto;html=1;fontFamily=SF Mono;endArrow=none;endFill=0;" parent="1" source="ZU8f28a7_l7UidNgGaAy-6" target="ZU8f28a7_l7UidNgGaAy-2" edge="1">
          <mxGeometry relative="1" as="geometry" />
        </mxCell>
        <mxCell id="ZU8f28a7_l7UidNgGaAy-6" value="forms&lt;br&gt;&lt;i&gt;questionnaires&lt;/i&gt;" style="rounded=0;whiteSpace=wrap;html=1;fontFamily=SF Mono;" parent="1" vertex="1">
          <mxGeometry x="320" y="200" width="120" height="40" as="geometry" />
        </mxCell>
        <mxCell id="ZU8f28a7_l7UidNgGaAy-7" value="questions" style="rounded=0;whiteSpace=wrap;html=1;fontFamily=SF Mono;" parent="1" vertex="1">
          <mxGeometry x="500" y="250" width="80" height="40" as="geometry" />
        </mxCell>
        <mxCell id="ZU8f28a7_l7UidNgGaAy-8" value="rewards" style="rounded=0;whiteSpace=wrap;html=1;fontFamily=SF Mono;" parent="1" vertex="1">
          <mxGeometry x="220" y="290" width="80" height="40" as="geometry" />
        </mxCell>
        <mxCell id="ZU8f28a7_l7UidNgGaAy-9" style="edgeStyle=none;rounded=0;orthogonalLoop=1;jettySize=auto;html=1;fontFamily=SF Mono;endArrow=none;endFill=0;" parent="1" source="ZU8f28a7_l7UidNgGaAy-10" target="ZU8f28a7_l7UidNgGaAy-8" edge="1">
          <mxGeometry relative="1" as="geometry" />
        </mxCell>
        <mxCell id="ZU8f28a7_l7UidNgGaAy-10" value="users" style="rounded=0;whiteSpace=wrap;html=1;fontFamily=SF Mono;" parent="1" vertex="1">
          <mxGeometry x="90" y="190" width="80" height="40" as="geometry" />
        </mxCell>
        <mxCell id="ZU8f28a7_l7UidNgGaAy-11" style="edgeStyle=none;rounded=0;orthogonalLoop=1;jettySize=auto;html=1;fontFamily=SF Mono;endArrow=none;endFill=0;" parent="1" source="ZU8f28a7_l7UidNgGaAy-12" target="ZU8f28a7_l7UidNgGaAy-7" edge="1">
          <mxGeometry relative="1" as="geometry" />
        </mxCell>
        <mxCell id="ZU8f28a7_l7UidNgGaAy-12" value="choices" style="rounded=0;whiteSpace=wrap;html=1;fontFamily=SF Mono;" parent="1" vertex="1">
          <mxGeometry x="520" y="370" width="80" height="40" as="geometry" />
        </mxCell>
        <mxCell id="ZU8f28a7_l7UidNgGaAy-13" style="edgeStyle=none;rounded=0;orthogonalLoop=1;jettySize=auto;html=1;fontFamily=SF Mono;endArrow=none;endFill=0;" parent="1" source="ZU8f28a7_l7UidNgGaAy-14" target="ZU8f28a7_l7UidNgGaAy-6" edge="1">
          <mxGeometry relative="1" as="geometry" />
        </mxCell>
        <mxCell id="ZU8f28a7_l7UidNgGaAy-14" value="tags" style="rounded=0;whiteSpace=wrap;html=1;fontFamily=SF Mono;" parent="1" vertex="1">
          <mxGeometry x="480" y="120" width="80" height="40" as="geometry" />
        </mxCell>
        <mxCell id="ZU8f28a7_l7UidNgGaAy-15" style="edgeStyle=none;rounded=0;orthogonalLoop=1;jettySize=auto;html=1;fontFamily=SF Mono;endArrow=none;endFill=0;" parent="1" source="ZU8f28a7_l7UidNgGaAy-18" target="ZU8f28a7_l7UidNgGaAy-12" edge="1">
          <mxGeometry relative="1" as="geometry" />
        </mxCell>
        <mxCell id="ZU8f28a7_l7UidNgGaAy-16" style="edgeStyle=none;rounded=0;orthogonalLoop=1;jettySize=auto;html=1;fontFamily=SF Mono;endArrow=none;endFill=0;" parent="1" source="ZU8f28a7_l7UidNgGaAy-18" target="ZU8f28a7_l7UidNgGaAy-6" edge="1">
          <mxGeometry relative="1" as="geometry" />
        </mxCell>
        <mxCell id="ZU8f28a7_l7UidNgGaAy-17" style="edgeStyle=none;rounded=0;orthogonalLoop=1;jettySize=auto;html=1;fontFamily=SF Mono;endArrow=none;endFill=0;" parent="1" source="ZU8f28a7_l7UidNgGaAy-18" target="ZU8f28a7_l7UidNgGaAy-8" edge="1">
          <mxGeometry relative="1" as="geometry" />
        </mxCell>
        <mxCell id="ZU8f28a7_l7UidNgGaAy-18" value="responses" style="rounded=0;whiteSpace=wrap;html=1;fontFamily=SF Mono;" parent="1" vertex="1">
          <mxGeometry x="345" y="430" width="80" height="40" as="geometry" />
        </mxCell>
      </root>
    </mxGraphModel>
  </diagram>
  <diagram id="xIMoIX6vQ8cecxuzU1E8" name="prop-sheet-straight">
    <mxGraphModel dx="1395" dy="760" grid="1" gridSize="10" guides="1" tooltips="1" connect="1" arrows="1" fold="1" page="1" pageScale="1" pageWidth="850" pageHeight="1100" math="0" shadow="0">
      <root>
        <mxCell id="E-c4d3bsg-4Vx-NA9pgp-0" />
        <mxCell id="E-c4d3bsg-4Vx-NA9pgp-1" parent="E-c4d3bsg-4Vx-NA9pgp-0" />
        <mxCell id="E-c4d3bsg-4Vx-NA9pgp-20" value="Legend" style="rounded=0;whiteSpace=wrap;html=1;fontFamily=SF Mono;fillColor=none;labelPosition=center;verticalLabelPosition=top;align=left;verticalAlign=bottom;" parent="E-c4d3bsg-4Vx-NA9pgp-1" vertex="1">
          <mxGeometry x="140" y="160" width="720" height="40" as="geometry" />
        </mxCell>
        <mxCell id="E-c4d3bsg-4Vx-NA9pgp-18" value="collection" style="rounded=0;whiteSpace=wrap;html=1;fontFamily=SF Mono;" parent="E-c4d3bsg-4Vx-NA9pgp-1" vertex="1">
          <mxGeometry x="150" y="170" width="100" height="20" as="geometry" />
        </mxCell>
        <mxCell id="E-c4d3bsg-4Vx-NA9pgp-19" value="enumeration" style="rounded=0;whiteSpace=wrap;html=1;fontFamily=SF Mono;fillColor=#dae8fc;strokeColor=#6c8ebf;" parent="E-c4d3bsg-4Vx-NA9pgp-1" vertex="1">
          <mxGeometry x="270" y="170" width="100" height="20" as="geometry" />
        </mxCell>
        <mxCell id="E-c4d3bsg-4Vx-NA9pgp-22" value="forms" style="swimlane;fontStyle=0;childLayout=stackLayout;horizontal=1;startSize=26;horizontalStack=0;resizeParent=1;resizeParentMax=0;resizeLast=0;collapsible=1;marginBottom=0;fontFamily=SF Mono;" parent="E-c4d3bsg-4Vx-NA9pgp-1" vertex="1">
          <mxGeometry x="680" y="260" width="160" height="546" as="geometry">
            <mxRectangle x="240" y="150" width="60" height="26" as="alternateBounds" />
          </mxGeometry>
        </mxCell>
        <mxCell id="E-c4d3bsg-4Vx-NA9pgp-26" value="client" style="text;strokeColor=#d79b00;align=left;verticalAlign=top;spacingLeft=4;spacingRight=4;overflow=hidden;rotatable=0;points=[[0,0.5],[1,0.5]];portConstraint=eastwest;fontFamily=SF Mono;fillColor=#ffe6cc;" parent="E-c4d3bsg-4Vx-NA9pgp-22" vertex="1">
          <mxGeometry y="26" width="160" height="26" as="geometry" />
        </mxCell>
        <mxCell id="E-c4d3bsg-4Vx-NA9pgp-37" value="questions" style="text;strokeColor=#d79b00;align=left;verticalAlign=top;spacingLeft=4;spacingRight=4;overflow=hidden;rotatable=0;points=[[0,0.5],[1,0.5]];portConstraint=eastwest;fontFamily=SF Mono;fillColor=#ffe6cc;" parent="E-c4d3bsg-4Vx-NA9pgp-22" vertex="1">
          <mxGeometry y="52" width="160" height="26" as="geometry" />
        </mxCell>
        <mxCell id="E-c4d3bsg-4Vx-NA9pgp-23" value="archive" style="text;align=left;verticalAlign=top;spacingLeft=4;spacingRight=4;overflow=hidden;rotatable=0;points=[[0,0.5],[1,0.5]];portConstraint=eastwest;fontFamily=SF Mono;fillColor=#e1d5e7;strokeColor=#9673a6;" parent="E-c4d3bsg-4Vx-NA9pgp-22" vertex="1">
          <mxGeometry y="78" width="160" height="26" as="geometry" />
        </mxCell>
        <mxCell id="E-c4d3bsg-4Vx-NA9pgp-24" value="backgroundImage" style="text;strokeColor=#666666;align=left;verticalAlign=top;spacingLeft=4;spacingRight=4;overflow=hidden;rotatable=0;points=[[0,0.5],[1,0.5]];portConstraint=eastwest;fontFamily=SF Mono;fillColor=#f5f5f5;fontColor=#333333;" parent="E-c4d3bsg-4Vx-NA9pgp-22" vertex="1">
          <mxGeometry y="104" width="160" height="26" as="geometry" />
        </mxCell>
        <mxCell id="E-c4d3bsg-4Vx-NA9pgp-25" value="campaign" style="text;strokeColor=#666666;align=left;verticalAlign=top;spacingLeft=4;spacingRight=4;overflow=hidden;rotatable=0;points=[[0,0.5],[1,0.5]];portConstraint=eastwest;fontFamily=SF Mono;fillColor=#f5f5f5;fontColor=#333333;" parent="E-c4d3bsg-4Vx-NA9pgp-22" vertex="1">
          <mxGeometry y="130" width="160" height="26" as="geometry" />
        </mxCell>
        <mxCell id="E-c4d3bsg-4Vx-NA9pgp-27" value="coverImage" style="text;strokeColor=#666666;align=left;verticalAlign=top;spacingLeft=4;spacingRight=4;overflow=hidden;rotatable=0;points=[[0,0.5],[1,0.5]];portConstraint=eastwest;fontFamily=SF Mono;fillColor=#f5f5f5;fontColor=#333333;" parent="E-c4d3bsg-4Vx-NA9pgp-22" vertex="1">
          <mxGeometry y="156" width="160" height="26" as="geometry" />
        </mxCell>
        <mxCell id="E-c4d3bsg-4Vx-NA9pgp-31" value="description" style="text;strokeColor=#666666;align=left;verticalAlign=top;spacingLeft=4;spacingRight=4;overflow=hidden;rotatable=0;points=[[0,0.5],[1,0.5]];portConstraint=eastwest;fontFamily=SF Mono;fillColor=#f5f5f5;fontColor=#333333;" parent="E-c4d3bsg-4Vx-NA9pgp-22" vertex="1">
          <mxGeometry y="182" width="160" height="26" as="geometry" />
        </mxCell>
        <mxCell id="E-c4d3bsg-4Vx-NA9pgp-28" value="createdAt" style="text;strokeColor=#666666;align=left;verticalAlign=top;spacingLeft=4;spacingRight=4;overflow=hidden;rotatable=0;points=[[0,0.5],[1,0.5]];portConstraint=eastwest;fontFamily=SF Mono;fillColor=#f5f5f5;fontColor=#333333;" parent="E-c4d3bsg-4Vx-NA9pgp-22" vertex="1">
          <mxGeometry y="208" width="160" height="26" as="geometry" />
        </mxCell>
        <mxCell id="E-c4d3bsg-4Vx-NA9pgp-29" value="createdBy" style="text;strokeColor=#d79b00;align=left;verticalAlign=top;spacingLeft=4;spacingRight=4;overflow=hidden;rotatable=0;points=[[0,0.5],[1,0.5]];portConstraint=eastwest;fontFamily=SF Mono;fillColor=#ffe6cc;" parent="E-c4d3bsg-4Vx-NA9pgp-22" vertex="1">
          <mxGeometry y="234" width="160" height="26" as="geometry" />
        </mxCell>
        <mxCell id="E-c4d3bsg-4Vx-NA9pgp-32" value="modifiedAt" style="text;strokeColor=#666666;align=left;verticalAlign=top;spacingLeft=4;spacingRight=4;overflow=hidden;rotatable=0;points=[[0,0.5],[1,0.5]];portConstraint=eastwest;fontFamily=SF Mono;fillColor=#f5f5f5;fontColor=#333333;" parent="E-c4d3bsg-4Vx-NA9pgp-22" vertex="1">
          <mxGeometry y="260" width="160" height="26" as="geometry" />
        </mxCell>
        <mxCell id="E-c4d3bsg-4Vx-NA9pgp-33" value="modifiedBy" style="text;strokeColor=#d79b00;align=left;verticalAlign=top;spacingLeft=4;spacingRight=4;overflow=hidden;rotatable=0;points=[[0,0.5],[1,0.5]];portConstraint=eastwest;fontFamily=SF Mono;fillColor=#ffe6cc;" parent="E-c4d3bsg-4Vx-NA9pgp-22" vertex="1">
          <mxGeometry y="286" width="160" height="26" as="geometry" />
        </mxCell>
        <mxCell id="E-c4d3bsg-4Vx-NA9pgp-34" value="name" style="text;strokeColor=#666666;align=left;verticalAlign=top;spacingLeft=4;spacingRight=4;overflow=hidden;rotatable=0;points=[[0,0.5],[1,0.5]];portConstraint=eastwest;fontFamily=SF Mono;fillColor=#f5f5f5;fontColor=#333333;" parent="E-c4d3bsg-4Vx-NA9pgp-22" vertex="1">
          <mxGeometry y="312" width="160" height="26" as="geometry" />
        </mxCell>
        <mxCell id="E-c4d3bsg-4Vx-NA9pgp-30" value="rewards" style="text;strokeColor=#d79b00;align=left;verticalAlign=top;spacingLeft=4;spacingRight=4;overflow=hidden;rotatable=0;points=[[0,0.5],[1,0.5]];portConstraint=eastwest;fontFamily=SF Mono;fillColor=#ffe6cc;" parent="E-c4d3bsg-4Vx-NA9pgp-22" vertex="1">
          <mxGeometry y="338" width="160" height="26" as="geometry" />
        </mxCell>
        <mxCell id="E-c4d3bsg-4Vx-NA9pgp-35" value="primaryColor" style="text;strokeColor=#82b366;align=left;verticalAlign=top;spacingLeft=4;spacingRight=4;overflow=hidden;rotatable=0;points=[[0,0.5],[1,0.5]];portConstraint=eastwest;fontFamily=SF Mono;fillColor=#d5e8d4;" parent="E-c4d3bsg-4Vx-NA9pgp-22" vertex="1">
          <mxGeometry y="364" width="160" height="26" as="geometry" />
        </mxCell>
        <mxCell id="E-c4d3bsg-4Vx-NA9pgp-36" value="published" style="text;strokeColor=#9673a6;align=left;verticalAlign=top;spacingLeft=4;spacingRight=4;overflow=hidden;rotatable=0;points=[[0,0.5],[1,0.5]];portConstraint=eastwest;fontFamily=SF Mono;fillColor=#e1d5e7;" parent="E-c4d3bsg-4Vx-NA9pgp-22" vertex="1">
          <mxGeometry y="390" width="160" height="26" as="geometry" />
        </mxCell>
        <mxCell id="E-c4d3bsg-4Vx-NA9pgp-38" value="requireVerifiedUser" style="text;strokeColor=#9673a6;align=left;verticalAlign=top;spacingLeft=4;spacingRight=4;overflow=hidden;rotatable=0;points=[[0,0.5],[1,0.5]];portConstraint=eastwest;fontFamily=SF Mono;fillColor=#e1d5e7;" parent="E-c4d3bsg-4Vx-NA9pgp-22" vertex="1">
          <mxGeometry y="416" width="160" height="26" as="geometry" />
        </mxCell>
        <mxCell id="E-c4d3bsg-4Vx-NA9pgp-40" value="tags" style="text;strokeColor=#82b366;align=left;verticalAlign=top;spacingLeft=4;spacingRight=4;overflow=hidden;rotatable=0;points=[[0,0.5],[1,0.5]];portConstraint=eastwest;fontFamily=SF Mono;fillColor=#d5e8d4;" parent="E-c4d3bsg-4Vx-NA9pgp-22" vertex="1">
          <mxGeometry y="442" width="160" height="26" as="geometry" />
        </mxCell>
        <mxCell id="E-c4d3bsg-4Vx-NA9pgp-41" value="thanks" style="text;strokeColor=#666666;align=left;verticalAlign=top;spacingLeft=4;spacingRight=4;overflow=hidden;rotatable=0;points=[[0,0.5],[1,0.5]];portConstraint=eastwest;fontFamily=SF Mono;fillColor=#f5f5f5;fontColor=#333333;" parent="E-c4d3bsg-4Vx-NA9pgp-22" vertex="1">
          <mxGeometry y="468" width="160" height="26" as="geometry" />
        </mxCell>
        <mxCell id="E-c4d3bsg-4Vx-NA9pgp-42" value="thanksImage" style="text;strokeColor=#666666;align=left;verticalAlign=top;spacingLeft=4;spacingRight=4;overflow=hidden;rotatable=0;points=[[0,0.5],[1,0.5]];portConstraint=eastwest;fontFamily=SF Mono;fillColor=#f5f5f5;fontColor=#333333;" parent="E-c4d3bsg-4Vx-NA9pgp-22" vertex="1">
          <mxGeometry y="494" width="160" height="26" as="geometry" />
        </mxCell>
        <mxCell id="E-c4d3bsg-4Vx-NA9pgp-39" value="thanksTitle" style="text;strokeColor=#666666;align=left;verticalAlign=top;spacingLeft=4;spacingRight=4;overflow=hidden;rotatable=0;points=[[0,0.5],[1,0.5]];portConstraint=eastwest;fontFamily=SF Mono;fillColor=#f5f5f5;fontColor=#333333;" parent="E-c4d3bsg-4Vx-NA9pgp-22" vertex="1">
          <mxGeometry y="520" width="160" height="26" as="geometry" />
        </mxCell>
        <mxCell id="E-c4d3bsg-4Vx-NA9pgp-43" value="questions" style="swimlane;fontStyle=0;childLayout=stackLayout;horizontal=1;startSize=26;horizontalStack=0;resizeParent=1;resizeParentMax=0;resizeLast=0;collapsible=1;marginBottom=0;fontFamily=SF Mono;" parent="E-c4d3bsg-4Vx-NA9pgp-1" vertex="1">
          <mxGeometry x="860" y="403" width="140" height="260" as="geometry">
            <mxRectangle x="240" y="150" width="60" height="26" as="alternateBounds" />
          </mxGeometry>
        </mxCell>
        <mxCell id="E-c4d3bsg-4Vx-NA9pgp-46" value="choices" style="text;strokeColor=#d79b00;align=left;verticalAlign=top;spacingLeft=4;spacingRight=4;overflow=hidden;rotatable=0;points=[[0,0.5],[1,0.5]];portConstraint=eastwest;fontFamily=SF Mono;fillColor=#ffe6cc;" parent="E-c4d3bsg-4Vx-NA9pgp-43" vertex="1">
          <mxGeometry y="26" width="140" height="26" as="geometry" />
        </mxCell>
        <mxCell id="E-c4d3bsg-4Vx-NA9pgp-45" value="axisLabels" style="text;strokeColor=#82b366;align=left;verticalAlign=top;spacingLeft=4;spacingRight=4;overflow=hidden;rotatable=0;points=[[0,0.5],[1,0.5]];portConstraint=eastwest;fontFamily=SF Mono;fillColor=#d5e8d4;" parent="E-c4d3bsg-4Vx-NA9pgp-43" vertex="1">
          <mxGeometry y="52" width="140" height="26" as="geometry" />
        </mxCell>
        <mxCell id="E-c4d3bsg-4Vx-NA9pgp-47" value="description" style="text;strokeColor=#666666;align=left;verticalAlign=top;spacingLeft=4;spacingRight=4;overflow=hidden;rotatable=0;points=[[0,0.5],[1,0.5]];portConstraint=eastwest;fontFamily=SF Mono;fillColor=#f5f5f5;fontColor=#333333;" parent="E-c4d3bsg-4Vx-NA9pgp-43" vertex="1">
          <mxGeometry y="78" width="140" height="26" as="geometry" />
        </mxCell>
        <mxCell id="E-c4d3bsg-4Vx-NA9pgp-48" value="id" style="text;strokeColor=#666666;align=left;verticalAlign=top;spacingLeft=4;spacingRight=4;overflow=hidden;rotatable=0;points=[[0,0.5],[1,0.5]];portConstraint=eastwest;fontFamily=SF Mono;fillColor=#f5f5f5;fontColor=#333333;" parent="E-c4d3bsg-4Vx-NA9pgp-43" vertex="1">
          <mxGeometry y="104" width="140" height="26" as="geometry" />
        </mxCell>
        <mxCell id="E-c4d3bsg-4Vx-NA9pgp-49" value="imageUpload" style="text;strokeColor=#666666;align=left;verticalAlign=top;spacingLeft=4;spacingRight=4;overflow=hidden;rotatable=0;points=[[0,0.5],[1,0.5]];portConstraint=eastwest;fontFamily=SF Mono;fillColor=#f5f5f5;fontColor=#333333;" parent="E-c4d3bsg-4Vx-NA9pgp-43" vertex="1">
          <mxGeometry y="130" width="140" height="26" as="geometry" />
        </mxCell>
        <mxCell id="E-c4d3bsg-4Vx-NA9pgp-51" value="textAnswer" style="text;strokeColor=#666666;align=left;verticalAlign=top;spacingLeft=4;spacingRight=4;overflow=hidden;rotatable=0;points=[[0,0.5],[1,0.5]];portConstraint=eastwest;fontFamily=SF Mono;fillColor=#f5f5f5;fontColor=#333333;" parent="E-c4d3bsg-4Vx-NA9pgp-43" vertex="1">
          <mxGeometry y="156" width="140" height="26" as="geometry" />
        </mxCell>
        <mxCell id="E-c4d3bsg-4Vx-NA9pgp-44" value="answerType" style="text;align=left;verticalAlign=top;spacingLeft=4;spacingRight=4;overflow=hidden;rotatable=0;points=[[0,0.5],[1,0.5]];portConstraint=eastwest;fontFamily=SF Mono;fillColor=#dae8fc;strokeColor=#6c8ebf;" parent="E-c4d3bsg-4Vx-NA9pgp-43" vertex="1">
          <mxGeometry y="182" width="140" height="26" as="geometry" />
        </mxCell>
        <mxCell id="E-c4d3bsg-4Vx-NA9pgp-50" value="text" style="text;strokeColor=#666666;align=left;verticalAlign=top;spacingLeft=4;spacingRight=4;overflow=hidden;rotatable=0;points=[[0,0.5],[1,0.5]];portConstraint=eastwest;fontFamily=SF Mono;fillColor=#f5f5f5;fontColor=#333333;" parent="E-c4d3bsg-4Vx-NA9pgp-43" vertex="1">
          <mxGeometry y="208" width="140" height="26" as="geometry" />
        </mxCell>
        <mxCell id="E-c4d3bsg-4Vx-NA9pgp-52" value="widget" style="text;strokeColor=#6c8ebf;align=left;verticalAlign=top;spacingLeft=4;spacingRight=4;overflow=hidden;rotatable=0;points=[[0,0.5],[1,0.5]];portConstraint=eastwest;fontFamily=SF Mono;fillColor=#dae8fc;" parent="E-c4d3bsg-4Vx-NA9pgp-43" vertex="1">
          <mxGeometry y="234" width="140" height="26" as="geometry" />
        </mxCell>
        <mxCell id="E-c4d3bsg-4Vx-NA9pgp-64" value="choices" style="swimlane;fontStyle=0;childLayout=stackLayout;horizontal=1;startSize=26;horizontalStack=0;resizeParent=1;resizeParentMax=0;resizeLast=0;collapsible=1;marginBottom=0;fontFamily=SF Mono;" parent="E-c4d3bsg-4Vx-NA9pgp-1" vertex="1">
          <mxGeometry x="1030" y="390" width="80" height="104" as="geometry">
            <mxRectangle x="240" y="150" width="60" height="26" as="alternateBounds" />
          </mxGeometry>
        </mxCell>
        <mxCell id="E-c4d3bsg-4Vx-NA9pgp-65" value="id" style="text;align=left;verticalAlign=top;spacingLeft=4;spacingRight=4;overflow=hidden;rotatable=0;points=[[0,0.5],[1,0.5]];portConstraint=eastwest;fontFamily=SF Mono;fillColor=#f5f5f5;strokeColor=#666666;fontColor=#333333;" parent="E-c4d3bsg-4Vx-NA9pgp-64" vertex="1">
          <mxGeometry y="26" width="80" height="26" as="geometry" />
        </mxCell>
        <mxCell id="E-c4d3bsg-4Vx-NA9pgp-66" value="image" style="text;strokeColor=#666666;align=left;verticalAlign=top;spacingLeft=4;spacingRight=4;overflow=hidden;rotatable=0;points=[[0,0.5],[1,0.5]];portConstraint=eastwest;fontFamily=SF Mono;fillColor=#f5f5f5;fontColor=#333333;" parent="E-c4d3bsg-4Vx-NA9pgp-64" vertex="1">
          <mxGeometry y="52" width="80" height="26" as="geometry" />
        </mxCell>
        <mxCell id="E-c4d3bsg-4Vx-NA9pgp-67" value="name" style="text;strokeColor=#666666;align=left;verticalAlign=top;spacingLeft=4;spacingRight=4;overflow=hidden;rotatable=0;points=[[0,0.5],[1,0.5]];portConstraint=eastwest;fontFamily=SF Mono;fillColor=#f5f5f5;fontColor=#333333;" parent="E-c4d3bsg-4Vx-NA9pgp-64" vertex="1">
          <mxGeometry y="78" width="80" height="26" as="geometry" />
        </mxCell>
        <mxCell id="E-c4d3bsg-4Vx-NA9pgp-96" style="rounded=0;orthogonalLoop=1;jettySize=auto;html=1;exitX=1;exitY=0.5;exitDx=0;exitDy=0;fontFamily=SF Mono;startArrow=none;startFill=0;endArrow=blockThin;endFill=1;" parent="E-c4d3bsg-4Vx-NA9pgp-1" source="E-c4d3bsg-4Vx-NA9pgp-46" target="E-c4d3bsg-4Vx-NA9pgp-64" edge="1">
          <mxGeometry relative="1" as="geometry" />
        </mxCell>
        <mxCell id="E-c4d3bsg-4Vx-NA9pgp-97" style="rounded=0;orthogonalLoop=1;jettySize=auto;html=1;exitX=0;exitY=0.5;exitDx=0;exitDy=0;fontFamily=SF Mono;startArrow=blockThin;startFill=1;endArrow=blockThin;endFill=1;entryX=1;entryY=0.5;entryDx=0;entryDy=0;" parent="E-c4d3bsg-4Vx-NA9pgp-1" source="E-c4d3bsg-4Vx-NA9pgp-26" target="E-c4d3bsg-4Vx-NA9pgp-3" edge="1">
          <mxGeometry relative="1" as="geometry" />
        </mxCell>
        <mxCell id="rE525xoiHs8YihGi35GB-57" style="rounded=0;orthogonalLoop=1;jettySize=auto;html=1;exitX=0;exitY=0.5;exitDx=0;exitDy=0;fontFamily=SF Mono;startArrow=none;startFill=0;endArrow=blockThin;endFill=1;" parent="E-c4d3bsg-4Vx-NA9pgp-1" source="rE525xoiHs8YihGi35GB-0" target="rE525xoiHs8YihGi35GB-19" edge="1">
          <mxGeometry relative="1" as="geometry" />
        </mxCell>
        <mxCell id="rE525xoiHs8YihGi35GB-0" value="responses" style="swimlane;fontStyle=0;childLayout=stackLayout;horizontal=1;startSize=26;horizontalStack=0;resizeParent=1;resizeParentMax=0;resizeLast=0;collapsible=1;marginBottom=0;fontFamily=SF Mono;" parent="E-c4d3bsg-4Vx-NA9pgp-1" vertex="1">
          <mxGeometry x="260" y="240" width="140" height="234" as="geometry">
            <mxRectangle x="240" y="150" width="60" height="26" as="alternateBounds" />
          </mxGeometry>
        </mxCell>
        <mxCell id="rE525xoiHs8YihGi35GB-1" value="client" style="text;align=left;verticalAlign=top;spacingLeft=4;spacingRight=4;overflow=hidden;rotatable=0;points=[[0,0.5],[1,0.5]];portConstraint=eastwest;fontFamily=SF Mono;fillColor=#ffe6cc;strokeColor=#d79b00;" parent="rE525xoiHs8YihGi35GB-0" vertex="1">
          <mxGeometry y="26" width="140" height="26" as="geometry" />
        </mxCell>
        <mxCell id="rE525xoiHs8YihGi35GB-7" value="answers" style="text;strokeColor=#d79b00;align=left;verticalAlign=top;spacingLeft=4;spacingRight=4;overflow=hidden;rotatable=0;points=[[0,0.5],[1,0.5]];portConstraint=eastwest;fontFamily=SF Mono;fillColor=#ffe6cc;" parent="rE525xoiHs8YihGi35GB-0" vertex="1">
          <mxGeometry y="52" width="140" height="26" as="geometry" />
        </mxCell>
        <mxCell id="rE525xoiHs8YihGi35GB-2" value="createdAt" style="text;strokeColor=#666666;align=left;verticalAlign=top;spacingLeft=4;spacingRight=4;overflow=hidden;rotatable=0;points=[[0,0.5],[1,0.5]];portConstraint=eastwest;fontFamily=SF Mono;fillColor=#f5f5f5;fontColor=#333333;" parent="rE525xoiHs8YihGi35GB-0" vertex="1">
          <mxGeometry y="78" width="140" height="26" as="geometry" />
        </mxCell>
        <mxCell id="rE525xoiHs8YihGi35GB-3" value="createdBy" style="text;strokeColor=#d79b00;align=left;verticalAlign=top;spacingLeft=4;spacingRight=4;overflow=hidden;rotatable=0;points=[[0,0.5],[1,0.5]];portConstraint=eastwest;fontFamily=SF Mono;fillColor=#ffe6cc;" parent="rE525xoiHs8YihGi35GB-0" vertex="1">
          <mxGeometry y="104" width="140" height="26" as="geometry" />
        </mxCell>
        <mxCell id="rE525xoiHs8YihGi35GB-4" value="initialized" style="text;strokeColor=#82b366;align=left;verticalAlign=top;spacingLeft=4;spacingRight=4;overflow=hidden;rotatable=0;points=[[0,0.5],[1,0.5]];portConstraint=eastwest;fontFamily=SF Mono;fillColor=#d5e8d4;" parent="rE525xoiHs8YihGi35GB-0" vertex="1">
          <mxGeometry y="130" width="140" height="26" as="geometry" />
        </mxCell>
        <mxCell id="rE525xoiHs8YihGi35GB-6" value="form" style="text;strokeColor=#d79b00;align=left;verticalAlign=top;spacingLeft=4;spacingRight=4;overflow=hidden;rotatable=0;points=[[0,0.5],[1,0.5]];portConstraint=eastwest;fontFamily=SF Mono;fillColor=#ffe6cc;" parent="rE525xoiHs8YihGi35GB-0" vertex="1">
          <mxGeometry y="156" width="140" height="26" as="geometry" />
        </mxCell>
        <mxCell id="rE525xoiHs8YihGi35GB-8" value="claim" style="text;strokeColor=#d79b00;align=left;verticalAlign=top;spacingLeft=4;spacingRight=4;overflow=hidden;rotatable=0;points=[[0,0.5],[1,0.5]];portConstraint=eastwest;fontFamily=SF Mono;fillColor=#ffe6cc;" parent="rE525xoiHs8YihGi35GB-0" vertex="1">
          <mxGeometry y="182" width="140" height="26" as="geometry" />
        </mxCell>
        <mxCell id="rE525xoiHs8YihGi35GB-5" value="reward" style="text;strokeColor=#d79b00;align=left;verticalAlign=top;spacingLeft=4;spacingRight=4;overflow=hidden;rotatable=0;points=[[0,0.5],[1,0.5]];portConstraint=eastwest;fontFamily=SF Mono;fillColor=#ffe6cc;" parent="rE525xoiHs8YihGi35GB-0" vertex="1">
          <mxGeometry y="208" width="140" height="26" as="geometry" />
        </mxCell>
        <mxCell id="rE525xoiHs8YihGi35GB-9" value="answers" style="swimlane;fontStyle=0;childLayout=stackLayout;horizontal=1;startSize=26;horizontalStack=0;resizeParent=1;resizeParentMax=0;resizeLast=0;collapsible=1;marginBottom=0;fontFamily=SF Mono;" parent="E-c4d3bsg-4Vx-NA9pgp-1" vertex="1">
          <mxGeometry x="100" y="240" width="100" height="104" as="geometry">
            <mxRectangle x="240" y="150" width="60" height="26" as="alternateBounds" />
          </mxGeometry>
        </mxCell>
        <mxCell id="rE525xoiHs8YihGi35GB-10" value="choice" style="text;align=left;verticalAlign=top;spacingLeft=4;spacingRight=4;overflow=hidden;rotatable=0;points=[[0,0.5],[1,0.5]];portConstraint=eastwest;fontFamily=SF Mono;fillColor=#ffe6cc;strokeColor=#d79b00;" parent="rE525xoiHs8YihGi35GB-9" vertex="1">
          <mxGeometry y="26" width="100" height="26" as="geometry" />
        </mxCell>
        <mxCell id="rE525xoiHs8YihGi35GB-11" value="question" style="text;strokeColor=#d79b00;align=left;verticalAlign=top;spacingLeft=4;spacingRight=4;overflow=hidden;rotatable=0;points=[[0,0.5],[1,0.5]];portConstraint=eastwest;fontFamily=SF Mono;fillColor=#ffe6cc;" parent="rE525xoiHs8YihGi35GB-9" vertex="1">
          <mxGeometry y="52" width="100" height="26" as="geometry" />
        </mxCell>
        <mxCell id="rE525xoiHs8YihGi35GB-12" value="value?" style="text;strokeColor=#666666;align=left;verticalAlign=top;spacingLeft=4;spacingRight=4;overflow=hidden;rotatable=0;points=[[0,0.5],[1,0.5]];portConstraint=eastwest;fontFamily=SF Mono;fillColor=#f5f5f5;fontColor=#333333;" parent="rE525xoiHs8YihGi35GB-9" vertex="1">
          <mxGeometry y="78" width="100" height="26" as="geometry" />
        </mxCell>
        <mxCell id="rE525xoiHs8YihGi35GB-18" style="rounded=0;orthogonalLoop=1;jettySize=auto;html=1;exitX=0;exitY=0.5;exitDx=0;exitDy=0;fontFamily=SF Mono;startArrow=none;startFill=0;endArrow=blockThin;endFill=1;" parent="E-c4d3bsg-4Vx-NA9pgp-1" source="rE525xoiHs8YihGi35GB-7" target="rE525xoiHs8YihGi35GB-9" edge="1">
          <mxGeometry relative="1" as="geometry" />
        </mxCell>
        <mxCell id="rE525xoiHs8YihGi35GB-19" value="users" style="swimlane;fontStyle=0;childLayout=stackLayout;horizontal=1;startSize=26;horizontalStack=0;resizeParent=1;resizeParentMax=0;resizeLast=0;collapsible=1;marginBottom=0;fontFamily=SF Mono;" parent="E-c4d3bsg-4Vx-NA9pgp-1" vertex="1">
          <mxGeometry x="30" y="468" width="140" height="130" as="geometry">
            <mxRectangle x="240" y="150" width="60" height="26" as="alternateBounds" />
          </mxGeometry>
        </mxCell>
        <mxCell id="rE525xoiHs8YihGi35GB-20" value="avatar" style="text;align=left;verticalAlign=top;spacingLeft=4;spacingRight=4;overflow=hidden;rotatable=0;points=[[0,0.5],[1,0.5]];portConstraint=eastwest;fontFamily=SF Mono;fillColor=#f5f5f5;strokeColor=#666666;fontColor=#333333;" parent="rE525xoiHs8YihGi35GB-19" vertex="1">
          <mxGeometry y="26" width="140" height="26" as="geometry" />
        </mxCell>
        <mxCell id="rE525xoiHs8YihGi35GB-21" value="email" style="text;strokeColor=#666666;align=left;verticalAlign=top;spacingLeft=4;spacingRight=4;overflow=hidden;rotatable=0;points=[[0,0.5],[1,0.5]];portConstraint=eastwest;fontFamily=SF Mono;fillColor=#f5f5f5;fontColor=#333333;" parent="rE525xoiHs8YihGi35GB-19" vertex="1">
          <mxGeometry y="52" width="140" height="26" as="geometry" />
        </mxCell>
        <mxCell id="rE525xoiHs8YihGi35GB-29" value="name" style="text;strokeColor=#666666;align=left;verticalAlign=top;spacingLeft=4;spacingRight=4;overflow=hidden;rotatable=0;points=[[0,0.5],[1,0.5]];portConstraint=eastwest;fontFamily=SF Mono;fillColor=#f5f5f5;fontColor=#333333;" parent="rE525xoiHs8YihGi35GB-19" vertex="1">
          <mxGeometry y="78" width="140" height="26" as="geometry" />
        </mxCell>
        <mxCell id="rE525xoiHs8YihGi35GB-22" value="claims?" style="text;strokeColor=#d79b00;align=left;verticalAlign=top;spacingLeft=4;spacingRight=4;overflow=hidden;rotatable=0;points=[[0,0.5],[1,0.5]];portConstraint=eastwest;fontFamily=SF Mono;fillColor=#ffe6cc;" parent="rE525xoiHs8YihGi35GB-19" vertex="1">
          <mxGeometry y="104" width="140" height="26" as="geometry" />
        </mxCell>
        <mxCell id="rE525xoiHs8YihGi35GB-30" style="rounded=0;orthogonalLoop=1;jettySize=auto;html=1;exitX=1;exitY=0.5;exitDx=0;exitDy=0;fontFamily=SF Mono;startArrow=none;startFill=0;endArrow=blockThin;endFill=1;" parent="E-c4d3bsg-4Vx-NA9pgp-1" source="rE525xoiHs8YihGi35GB-1" target="E-c4d3bsg-4Vx-NA9pgp-2" edge="1">
          <mxGeometry relative="1" as="geometry" />
        </mxCell>
        <mxCell id="rE525xoiHs8YihGi35GB-32" style="rounded=0;orthogonalLoop=1;jettySize=auto;html=1;exitX=1;exitY=0.5;exitDx=0;exitDy=0;fontFamily=SF Mono;startArrow=none;startFill=0;endArrow=blockThin;endFill=1;" parent="E-c4d3bsg-4Vx-NA9pgp-1" source="rE525xoiHs8YihGi35GB-22" target="rE525xoiHs8YihGi35GB-23" edge="1">
          <mxGeometry relative="1" as="geometry" />
        </mxCell>
        <mxCell id="rE525xoiHs8YihGi35GB-33" value="answerType" style="swimlane;fontStyle=0;childLayout=stackLayout;horizontal=1;startSize=26;horizontalStack=0;resizeParent=1;resizeParentMax=0;resizeLast=0;collapsible=1;marginBottom=0;fontFamily=SF Mono;fillColor=#dae8fc;strokeColor=#6c8ebf;" parent="E-c4d3bsg-4Vx-NA9pgp-1" vertex="1">
          <mxGeometry x="1030" y="533" width="120" height="130" as="geometry">
            <mxRectangle x="240" y="150" width="60" height="26" as="alternateBounds" />
          </mxGeometry>
        </mxCell>
        <mxCell id="rE525xoiHs8YihGi35GB-34" value="Single rating" style="text;align=left;verticalAlign=top;spacingLeft=4;spacingRight=4;overflow=hidden;rotatable=0;points=[[0,0.5],[1,0.5]];portConstraint=eastwest;fontFamily=SF Mono;fillColor=#f5f5f5;strokeColor=#666666;fontColor=#333333;" parent="rE525xoiHs8YihGi35GB-33" vertex="1">
          <mxGeometry y="26" width="120" height="26" as="geometry" />
        </mxCell>
        <mxCell id="rE525xoiHs8YihGi35GB-35" value="Multi rating" style="text;strokeColor=#666666;align=left;verticalAlign=top;spacingLeft=4;spacingRight=4;overflow=hidden;rotatable=0;points=[[0,0.5],[1,0.5]];portConstraint=eastwest;fontFamily=SF Mono;fillColor=#f5f5f5;fontColor=#333333;" parent="rE525xoiHs8YihGi35GB-33" vertex="1">
          <mxGeometry y="52" width="120" height="26" as="geometry" />
        </mxCell>
        <mxCell id="rE525xoiHs8YihGi35GB-36" value="Single choice" style="text;strokeColor=#666666;align=left;verticalAlign=top;spacingLeft=4;spacingRight=4;overflow=hidden;rotatable=0;points=[[0,0.5],[1,0.5]];portConstraint=eastwest;fontFamily=SF Mono;fillColor=#f5f5f5;fontColor=#333333;" parent="rE525xoiHs8YihGi35GB-33" vertex="1">
          <mxGeometry y="78" width="120" height="26" as="geometry" />
        </mxCell>
        <mxCell id="rE525xoiHs8YihGi35GB-37" value="Multi choice" style="text;strokeColor=#666666;align=left;verticalAlign=top;spacingLeft=4;spacingRight=4;overflow=hidden;rotatable=0;points=[[0,0.5],[1,0.5]];portConstraint=eastwest;fontFamily=SF Mono;fillColor=#f5f5f5;fontColor=#333333;" parent="rE525xoiHs8YihGi35GB-33" vertex="1">
          <mxGeometry y="104" width="120" height="26" as="geometry" />
        </mxCell>
        <mxCell id="rE525xoiHs8YihGi35GB-43" style="rounded=0;orthogonalLoop=1;jettySize=auto;html=1;fontFamily=SF Mono;startArrow=none;startFill=0;endArrow=blockThin;endFill=1;" parent="E-c4d3bsg-4Vx-NA9pgp-1" source="rE525xoiHs8YihGi35GB-40" target="E-c4d3bsg-4Vx-NA9pgp-12" edge="1">
          <mxGeometry relative="1" as="geometry" />
        </mxCell>
        <mxCell id="rE525xoiHs8YihGi35GB-44" style="rounded=0;orthogonalLoop=1;jettySize=auto;html=1;exitX=1;exitY=0.5;exitDx=0;exitDy=0;fontFamily=SF Mono;startArrow=none;startFill=0;endArrow=blockThin;endFill=1;" parent="E-c4d3bsg-4Vx-NA9pgp-1" source="E-c4d3bsg-4Vx-NA9pgp-44" target="rE525xoiHs8YihGi35GB-33" edge="1">
          <mxGeometry relative="1" as="geometry" />
        </mxCell>
        <mxCell id="rE525xoiHs8YihGi35GB-45" value="widget" style="swimlane;fontStyle=0;childLayout=stackLayout;horizontal=1;startSize=26;horizontalStack=0;resizeParent=1;resizeParentMax=0;resizeLast=0;collapsible=1;marginBottom=0;fontFamily=SF Mono;fillColor=#dae8fc;strokeColor=#6c8ebf;" parent="E-c4d3bsg-4Vx-NA9pgp-1" vertex="1">
          <mxGeometry x="990" y="680" width="120" height="78" as="geometry">
            <mxRectangle x="240" y="150" width="60" height="26" as="alternateBounds" />
          </mxGeometry>
        </mxCell>
        <mxCell id="rE525xoiHs8YihGi35GB-46" value="carousel" style="text;align=left;verticalAlign=top;spacingLeft=4;spacingRight=4;overflow=hidden;rotatable=0;points=[[0,0.5],[1,0.5]];portConstraint=eastwest;fontFamily=SF Mono;fillColor=#f5f5f5;strokeColor=#666666;fontColor=#333333;" parent="rE525xoiHs8YihGi35GB-45" vertex="1">
          <mxGeometry y="26" width="120" height="26" as="geometry" />
        </mxCell>
        <mxCell id="rE525xoiHs8YihGi35GB-47" value="list" style="text;align=left;verticalAlign=top;spacingLeft=4;spacingRight=4;overflow=hidden;rotatable=0;points=[[0,0.5],[1,0.5]];portConstraint=eastwest;fontFamily=SF Mono;fillColor=#f5f5f5;strokeColor=#666666;fontColor=#333333;" parent="rE525xoiHs8YihGi35GB-45" vertex="1">
          <mxGeometry y="52" width="120" height="26" as="geometry" />
        </mxCell>
        <mxCell id="rE525xoiHs8YihGi35GB-52" style="rounded=0;orthogonalLoop=1;jettySize=auto;html=1;exitX=1;exitY=0.5;exitDx=0;exitDy=0;fontFamily=SF Mono;startArrow=none;startFill=0;endArrow=blockThin;endFill=1;" parent="E-c4d3bsg-4Vx-NA9pgp-1" source="E-c4d3bsg-4Vx-NA9pgp-52" target="rE525xoiHs8YihGi35GB-45" edge="1">
          <mxGeometry relative="1" as="geometry" />
        </mxCell>
        <mxCell id="rE525xoiHs8YihGi35GB-54" style="rounded=0;orthogonalLoop=1;jettySize=auto;html=1;exitX=1;exitY=0.5;exitDx=0;exitDy=0;fontFamily=SF Mono;startArrow=none;startFill=0;endArrow=blockThin;endFill=1;" parent="E-c4d3bsg-4Vx-NA9pgp-1" source="rE525xoiHs8YihGi35GB-6" target="E-c4d3bsg-4Vx-NA9pgp-22" edge="1">
          <mxGeometry relative="1" as="geometry" />
        </mxCell>
        <mxCell id="rE525xoiHs8YihGi35GB-55" style="rounded=0;orthogonalLoop=1;jettySize=auto;html=1;exitX=1;exitY=0.5;exitDx=0;exitDy=0;fontFamily=SF Mono;startArrow=none;startFill=0;endArrow=blockThin;endFill=1;" parent="E-c4d3bsg-4Vx-NA9pgp-1" source="rE525xoiHs8YihGi35GB-27" target="E-c4d3bsg-4Vx-NA9pgp-22" edge="1">
          <mxGeometry relative="1" as="geometry" />
        </mxCell>
        <mxCell id="rE525xoiHs8YihGi35GB-56" style="rounded=0;orthogonalLoop=1;jettySize=auto;html=1;exitX=0;exitY=0.5;exitDx=0;exitDy=0;fontFamily=SF Mono;startArrow=none;startFill=0;endArrow=blockThin;endFill=1;" parent="E-c4d3bsg-4Vx-NA9pgp-1" source="E-c4d3bsg-4Vx-NA9pgp-33" target="rE525xoiHs8YihGi35GB-19" edge="1">
          <mxGeometry relative="1" as="geometry" />
        </mxCell>
        <mxCell id="E-c4d3bsg-4Vx-NA9pgp-2" value="clients" style="swimlane;fontStyle=0;childLayout=stackLayout;horizontal=1;startSize=26;horizontalStack=0;resizeParent=1;resizeParentMax=0;resizeLast=0;collapsible=1;marginBottom=0;fontFamily=SF Mono;" parent="E-c4d3bsg-4Vx-NA9pgp-1" vertex="1">
          <mxGeometry x="520" y="312" width="120" height="156" as="geometry">
            <mxRectangle x="240" y="150" width="60" height="26" as="alternateBounds" />
          </mxGeometry>
        </mxCell>
        <mxCell id="E-c4d3bsg-4Vx-NA9pgp-3" value="forms" style="text;align=left;verticalAlign=top;spacingLeft=4;spacingRight=4;overflow=hidden;rotatable=0;points=[[0,0.5],[1,0.5]];portConstraint=eastwest;fontFamily=SF Mono;fillColor=#ffe6cc;strokeColor=#d79b00;" parent="E-c4d3bsg-4Vx-NA9pgp-2" vertex="1">
          <mxGeometry y="26" width="120" height="26" as="geometry" />
        </mxCell>
        <mxCell id="E-c4d3bsg-4Vx-NA9pgp-4" value="ICO" style="text;strokeColor=#666666;align=left;verticalAlign=top;spacingLeft=4;spacingRight=4;overflow=hidden;rotatable=0;points=[[0,0.5],[1,0.5]];portConstraint=eastwest;fontFamily=SF Mono;fillColor=#f5f5f5;fontColor=#333333;" parent="E-c4d3bsg-4Vx-NA9pgp-2" vertex="1">
          <mxGeometry y="52" width="120" height="26" as="geometry" />
        </mxCell>
        <mxCell id="E-c4d3bsg-4Vx-NA9pgp-5" value="companyID" style="text;strokeColor=#666666;align=left;verticalAlign=top;spacingLeft=4;spacingRight=4;overflow=hidden;rotatable=0;points=[[0,0.5],[1,0.5]];portConstraint=eastwest;fontFamily=SF Mono;fillColor=#f5f5f5;fontColor=#333333;" parent="E-c4d3bsg-4Vx-NA9pgp-2" vertex="1">
          <mxGeometry y="78" width="120" height="26" as="geometry" />
        </mxCell>
        <mxCell id="E-c4d3bsg-4Vx-NA9pgp-10" value="name" style="text;strokeColor=#666666;align=left;verticalAlign=top;spacingLeft=4;spacingRight=4;overflow=hidden;rotatable=0;points=[[0,0.5],[1,0.5]];portConstraint=eastwest;fontFamily=SF Mono;fillColor=#f5f5f5;fontColor=#333333;" parent="E-c4d3bsg-4Vx-NA9pgp-2" vertex="1">
          <mxGeometry y="104" width="120" height="26" as="geometry" />
        </mxCell>
        <mxCell id="E-c4d3bsg-4Vx-NA9pgp-11" value="members" style="text;strokeColor=#d79b00;align=left;verticalAlign=top;spacingLeft=4;spacingRight=4;overflow=hidden;rotatable=0;points=[[0,0.5],[1,0.5]];portConstraint=eastwest;fontFamily=SF Mono;fillColor=#ffe6cc;" parent="E-c4d3bsg-4Vx-NA9pgp-2" vertex="1">
          <mxGeometry y="130" width="120" height="26" as="geometry" />
        </mxCell>
        <mxCell id="rE525xoiHs8YihGi35GB-62" style="rounded=0;orthogonalLoop=1;jettySize=auto;html=1;exitX=0;exitY=0.5;exitDx=0;exitDy=0;fontFamily=SF Mono;startArrow=none;startFill=0;endArrow=blockThin;endFill=1;" parent="E-c4d3bsg-4Vx-NA9pgp-1" source="E-c4d3bsg-4Vx-NA9pgp-76" target="rE525xoiHs8YihGi35GB-19" edge="1">
          <mxGeometry relative="1" as="geometry" />
        </mxCell>
        <mxCell id="E-c4d3bsg-4Vx-NA9pgp-95" style="rounded=0;orthogonalLoop=1;jettySize=auto;html=1;fontFamily=SF Mono;startArrow=none;startFill=0;endArrow=blockThin;endFill=1;exitX=0;exitY=0.5;exitDx=0;exitDy=0;" parent="E-c4d3bsg-4Vx-NA9pgp-1" target="E-c4d3bsg-4Vx-NA9pgp-76" edge="1" source="E-c4d3bsg-4Vx-NA9pgp-30">
          <mxGeometry relative="1" as="geometry">
            <mxPoint x="680" y="590" as="sourcePoint" />
          </mxGeometry>
        </mxCell>
        <mxCell id="rE525xoiHs8YihGi35GB-59" style="rounded=0;orthogonalLoop=1;jettySize=auto;html=1;exitX=1;exitY=0.5;exitDx=0;exitDy=0;fontFamily=SF Mono;startArrow=none;startFill=0;endArrow=blockThin;endFill=1;" parent="E-c4d3bsg-4Vx-NA9pgp-1" source="rE525xoiHs8YihGi35GB-5" target="E-c4d3bsg-4Vx-NA9pgp-76" edge="1">
          <mxGeometry relative="1" as="geometry" />
        </mxCell>
        <mxCell id="rE525xoiHs8YihGi35GB-42" style="rounded=0;orthogonalLoop=1;jettySize=auto;html=1;fontFamily=SF Mono;startArrow=none;startFill=0;endArrow=blockThin;endFill=1;" parent="E-c4d3bsg-4Vx-NA9pgp-1" source="E-c4d3bsg-4Vx-NA9pgp-11" target="rE525xoiHs8YihGi35GB-38" edge="1">
          <mxGeometry relative="1" as="geometry" />
        </mxCell>
        <mxCell id="rE525xoiHs8YihGi35GB-58" style="rounded=0;orthogonalLoop=1;jettySize=auto;html=1;exitX=1;exitY=0.5;exitDx=0;exitDy=0;fontFamily=SF Mono;startArrow=none;startFill=0;endArrow=blockThin;endFill=1;" parent="E-c4d3bsg-4Vx-NA9pgp-1" source="rE525xoiHs8YihGi35GB-8" target="rE525xoiHs8YihGi35GB-23" edge="1">
          <mxGeometry relative="1" as="geometry" />
        </mxCell>
        <mxCell id="rE525xoiHs8YihGi35GB-75" value="reference" style="rounded=0;whiteSpace=wrap;html=1;fontFamily=SF Mono;fillColor=#ffe6cc;strokeColor=#d79b00;" parent="E-c4d3bsg-4Vx-NA9pgp-1" vertex="1">
          <mxGeometry x="390" y="170" width="100" height="20" as="geometry" />
        </mxCell>
        <mxCell id="rE525xoiHs8YihGi35GB-76" value="boolean" style="rounded=0;whiteSpace=wrap;html=1;fontFamily=SF Mono;fillColor=#e1d5e7;strokeColor=#9673a6;" parent="E-c4d3bsg-4Vx-NA9pgp-1" vertex="1">
          <mxGeometry x="510" y="170" width="100" height="20" as="geometry" />
        </mxCell>
        <mxCell id="rE525xoiHs8YihGi35GB-77" value="object" style="rounded=0;whiteSpace=wrap;html=1;fontFamily=SF Mono;fillColor=#d5e8d4;strokeColor=#82b366;" parent="E-c4d3bsg-4Vx-NA9pgp-1" vertex="1">
          <mxGeometry x="630" y="170" width="100" height="20" as="geometry" />
        </mxCell>
        <mxCell id="rE525xoiHs8YihGi35GB-78" value="text" style="rounded=0;whiteSpace=wrap;html=1;fontFamily=SF Mono;fillColor=#f5f5f5;strokeColor=#666666;fontColor=#333333;" parent="E-c4d3bsg-4Vx-NA9pgp-1" vertex="1">
          <mxGeometry x="750" y="170" width="100" height="20" as="geometry" />
        </mxCell>
        <mxCell id="CxTXQL4VN-rX63SIm2rF-0" style="edgeStyle=none;rounded=0;orthogonalLoop=1;jettySize=auto;html=1;exitX=1;exitY=0.5;exitDx=0;exitDy=0;endArrow=blockThin;endFill=1;" edge="1" parent="E-c4d3bsg-4Vx-NA9pgp-1" source="E-c4d3bsg-4Vx-NA9pgp-37" target="E-c4d3bsg-4Vx-NA9pgp-43">
          <mxGeometry relative="1" as="geometry" />
        </mxCell>
        <mxCell id="E-c4d3bsg-4Vx-NA9pgp-76" value="rewards" style="swimlane;fontStyle=0;childLayout=stackLayout;horizontal=1;startSize=26;horizontalStack=0;resizeParent=1;resizeParentMax=0;resizeLast=0;collapsible=1;marginBottom=0;fontFamily=SF Mono;" parent="E-c4d3bsg-4Vx-NA9pgp-1" vertex="1">
          <mxGeometry x="190" y="663" width="120" height="182" as="geometry">
            <mxRectangle x="240" y="150" width="60" height="26" as="alternateBounds" />
          </mxGeometry>
        </mxCell>
        <mxCell id="E-c4d3bsg-4Vx-NA9pgp-77" value="description" style="text;align=left;verticalAlign=top;spacingLeft=4;spacingRight=4;overflow=hidden;rotatable=0;points=[[0,0.5],[1,0.5]];portConstraint=eastwest;fontFamily=SF Mono;fillColor=#f5f5f5;strokeColor=#666666;fontColor=#333333;" parent="E-c4d3bsg-4Vx-NA9pgp-76" vertex="1">
          <mxGeometry y="26" width="120" height="26" as="geometry" />
        </mxCell>
        <mxCell id="E-c4d3bsg-4Vx-NA9pgp-78" value="id" style="text;strokeColor=#666666;align=left;verticalAlign=top;spacingLeft=4;spacingRight=4;overflow=hidden;rotatable=0;points=[[0,0.5],[1,0.5]];portConstraint=eastwest;fontFamily=SF Mono;fillColor=#f5f5f5;fontColor=#333333;" parent="E-c4d3bsg-4Vx-NA9pgp-76" vertex="1">
          <mxGeometry y="52" width="120" height="26" as="geometry" />
        </mxCell>
        <mxCell id="E-c4d3bsg-4Vx-NA9pgp-79" value="image" style="text;strokeColor=#666666;align=left;verticalAlign=top;spacingLeft=4;spacingRight=4;overflow=hidden;rotatable=0;points=[[0,0.5],[1,0.5]];portConstraint=eastwest;fontFamily=SF Mono;fillColor=#f5f5f5;fontColor=#333333;" parent="E-c4d3bsg-4Vx-NA9pgp-76" vertex="1">
          <mxGeometry y="78" width="120" height="26" as="geometry" />
        </mxCell>
        <mxCell id="E-c4d3bsg-4Vx-NA9pgp-81" value="max_validity?" style="text;strokeColor=#666666;align=left;verticalAlign=top;spacingLeft=4;spacingRight=4;overflow=hidden;rotatable=0;points=[[0,0.5],[1,0.5]];portConstraint=eastwest;fontFamily=SF Mono;fillColor=#f5f5f5;fontColor=#333333;" parent="E-c4d3bsg-4Vx-NA9pgp-76" vertex="1">
          <mxGeometry y="104" width="120" height="26" as="geometry" />
        </mxCell>
        <mxCell id="E-c4d3bsg-4Vx-NA9pgp-82" value="text" style="text;strokeColor=#666666;align=left;verticalAlign=top;spacingLeft=4;spacingRight=4;overflow=hidden;rotatable=0;points=[[0,0.5],[1,0.5]];portConstraint=eastwest;fontFamily=SF Mono;fillColor=#f5f5f5;fontColor=#333333;" parent="E-c4d3bsg-4Vx-NA9pgp-76" vertex="1">
          <mxGeometry y="130" width="120" height="26" as="geometry" />
        </mxCell>
        <mxCell id="E-c4d3bsg-4Vx-NA9pgp-80" value="validity?" style="text;strokeColor=#666666;align=left;verticalAlign=top;spacingLeft=4;spacingRight=4;overflow=hidden;rotatable=0;points=[[0,0.5],[1,0.5]];portConstraint=eastwest;fontFamily=SF Mono;fillColor=#f5f5f5;fontColor=#333333;" parent="E-c4d3bsg-4Vx-NA9pgp-76" vertex="1">
          <mxGeometry y="156" width="120" height="26" as="geometry" />
        </mxCell>
        <mxCell id="CxTXQL4VN-rX63SIm2rF-1" value="" style="rounded=0;orthogonalLoop=1;jettySize=auto;html=1;exitX=0;exitY=0.5;exitDx=0;exitDy=0;fontFamily=SF Mono;startArrow=none;startFill=0;endArrow=blockThin;endFill=1;" edge="1" parent="E-c4d3bsg-4Vx-NA9pgp-1" source="E-c4d3bsg-4Vx-NA9pgp-29" target="rE525xoiHs8YihGi35GB-19">
          <mxGeometry relative="1" as="geometry">
            <mxPoint x="680" y="507" as="sourcePoint" />
            <mxPoint x="240" y="512.1764705882354" as="targetPoint" />
          </mxGeometry>
        </mxCell>
        <mxCell id="CxTXQL4VN-rX63SIm2rF-4" value="" style="rounded=0;orthogonalLoop=1;jettySize=auto;html=1;exitX=1;exitY=0.5;exitDx=0;exitDy=0;fontFamily=SF Mono;startArrow=none;startFill=0;endArrow=blockThin;endFill=1;" edge="1" parent="E-c4d3bsg-4Vx-NA9pgp-1" source="rE525xoiHs8YihGi35GB-24" target="E-c4d3bsg-4Vx-NA9pgp-2">
          <mxGeometry relative="1" as="geometry">
            <mxPoint x="600" y="793" as="sourcePoint" />
            <mxPoint x="575.6934306569342" y="460" as="targetPoint" />
          </mxGeometry>
        </mxCell>
        <mxCell id="E-c4d3bsg-4Vx-NA9pgp-12" value="role" style="swimlane;fontStyle=0;childLayout=stackLayout;horizontal=1;startSize=26;horizontalStack=0;resizeParent=1;resizeParentMax=0;resizeLast=0;collapsible=1;marginBottom=0;fontFamily=SF Mono;fillColor=#dae8fc;strokeColor=#6c8ebf;" parent="E-c4d3bsg-4Vx-NA9pgp-1" vertex="1">
          <mxGeometry x="520" y="790" width="140" height="78" as="geometry">
            <mxRectangle x="240" y="150" width="60" height="26" as="alternateBounds" />
          </mxGeometry>
        </mxCell>
        <mxCell id="E-c4d3bsg-4Vx-NA9pgp-13" value="ADMIN" style="text;align=left;verticalAlign=top;spacingLeft=4;spacingRight=4;overflow=hidden;rotatable=0;points=[[0,0.5],[1,0.5]];portConstraint=eastwest;fontFamily=SF Mono;fillColor=#f5f5f5;strokeColor=#666666;fontColor=#333333;" parent="E-c4d3bsg-4Vx-NA9pgp-12" vertex="1">
          <mxGeometry y="26" width="140" height="26" as="geometry" />
        </mxCell>
        <mxCell id="E-c4d3bsg-4Vx-NA9pgp-14" value="SUPERADMIN" style="text;strokeColor=#666666;align=left;verticalAlign=top;spacingLeft=4;spacingRight=4;overflow=hidden;rotatable=0;points=[[0,0.5],[1,0.5]];portConstraint=eastwest;fontFamily=SF Mono;fillColor=#f5f5f5;fontColor=#333333;" parent="E-c4d3bsg-4Vx-NA9pgp-12" vertex="1">
          <mxGeometry y="52" width="140" height="26" as="geometry" />
        </mxCell>
        <mxCell id="rE525xoiHs8YihGi35GB-38" value="members" style="swimlane;fontStyle=0;childLayout=stackLayout;horizontal=1;startSize=26;horizontalStack=0;resizeParent=1;resizeParentMax=0;resizeLast=0;collapsible=1;marginBottom=0;fontFamily=SF Mono;" parent="E-c4d3bsg-4Vx-NA9pgp-1" vertex="1">
          <mxGeometry x="520" y="690" width="140" height="78" as="geometry">
            <mxRectangle x="240" y="150" width="60" height="26" as="alternateBounds" />
          </mxGeometry>
        </mxCell>
        <mxCell id="rE525xoiHs8YihGi35GB-39" value="user" style="text;align=left;verticalAlign=top;spacingLeft=4;spacingRight=4;overflow=hidden;rotatable=0;points=[[0,0.5],[1,0.5]];portConstraint=eastwest;fontFamily=SF Mono;fillColor=#ffe6cc;strokeColor=#d79b00;" parent="rE525xoiHs8YihGi35GB-38" vertex="1">
          <mxGeometry y="26" width="140" height="26" as="geometry" />
        </mxCell>
        <mxCell id="rE525xoiHs8YihGi35GB-40" value="role" style="text;strokeColor=#6c8ebf;align=left;verticalAlign=top;spacingLeft=4;spacingRight=4;overflow=hidden;rotatable=0;points=[[0,0.5],[1,0.5]];portConstraint=eastwest;fontFamily=SF Mono;fillColor=#dae8fc;" parent="rE525xoiHs8YihGi35GB-38" vertex="1">
          <mxGeometry y="52" width="140" height="26" as="geometry" />
        </mxCell>
        <mxCell id="rE525xoiHs8YihGi35GB-23" value="claims" style="swimlane;fontStyle=0;childLayout=stackLayout;horizontal=1;startSize=26;horizontalStack=0;resizeParent=1;resizeParentMax=0;resizeLast=0;collapsible=1;marginBottom=0;fontFamily=SF Mono;" parent="E-c4d3bsg-4Vx-NA9pgp-1" vertex="1">
          <mxGeometry x="380" y="500" width="140" height="156" as="geometry">
            <mxRectangle x="240" y="150" width="60" height="26" as="alternateBounds" />
          </mxGeometry>
        </mxCell>
        <mxCell id="rE525xoiHs8YihGi35GB-26" value="reward" style="text;strokeColor=#d79b00;align=left;verticalAlign=top;spacingLeft=4;spacingRight=4;overflow=hidden;rotatable=0;points=[[0,0.5],[1,0.5]];portConstraint=eastwest;fontFamily=SF Mono;fillColor=#ffe6cc;" parent="rE525xoiHs8YihGi35GB-23" vertex="1">
          <mxGeometry y="26" width="140" height="26" as="geometry" />
        </mxCell>
        <mxCell id="rE525xoiHs8YihGi35GB-24" value="client" style="text;align=left;verticalAlign=top;spacingLeft=4;spacingRight=4;overflow=hidden;rotatable=0;points=[[0,0.5],[1,0.5]];portConstraint=eastwest;fontFamily=SF Mono;fillColor=#ffe6cc;strokeColor=#d79b00;" parent="rE525xoiHs8YihGi35GB-23" vertex="1">
          <mxGeometry y="52" width="140" height="26" as="geometry" />
        </mxCell>
        <mxCell id="rE525xoiHs8YihGi35GB-25" value="createdAt" style="text;strokeColor=#666666;align=left;verticalAlign=top;spacingLeft=4;spacingRight=4;overflow=hidden;rotatable=0;points=[[0,0.5],[1,0.5]];portConstraint=eastwest;fontFamily=SF Mono;fillColor=#f5f5f5;fontColor=#333333;" parent="rE525xoiHs8YihGi35GB-23" vertex="1">
          <mxGeometry y="78" width="140" height="26" as="geometry" />
        </mxCell>
        <mxCell id="rE525xoiHs8YihGi35GB-27" value="form" style="text;strokeColor=#d79b00;align=left;verticalAlign=top;spacingLeft=4;spacingRight=4;overflow=hidden;rotatable=0;points=[[0,0.5],[1,0.5]];portConstraint=eastwest;fontFamily=SF Mono;fillColor=#ffe6cc;" parent="rE525xoiHs8YihGi35GB-23" vertex="1">
          <mxGeometry y="104" width="140" height="26" as="geometry" />
        </mxCell>
        <mxCell id="rE525xoiHs8YihGi35GB-28" value="used" style="text;strokeColor=#9673a6;align=left;verticalAlign=top;spacingLeft=4;spacingRight=4;overflow=hidden;rotatable=0;points=[[0,0.5],[1,0.5]];portConstraint=eastwest;fontFamily=SF Mono;fillColor=#e1d5e7;" parent="rE525xoiHs8YihGi35GB-23" vertex="1">
          <mxGeometry y="130" width="140" height="26" as="geometry" />
        </mxCell>
        <mxCell id="CxTXQL4VN-rX63SIm2rF-5" style="edgeStyle=none;rounded=0;orthogonalLoop=1;jettySize=auto;html=1;exitX=0;exitY=0.5;exitDx=0;exitDy=0;startArrow=blockThin;startFill=1;endArrow=blockThin;endFill=1;" edge="1" parent="E-c4d3bsg-4Vx-NA9pgp-1" source="rE525xoiHs8YihGi35GB-39" target="rE525xoiHs8YihGi35GB-19">
          <mxGeometry relative="1" as="geometry" />
        </mxCell>
      </root>
    </mxGraphModel>
  </diagram>
  <diagram id="KHN7DkuoOiSx91gLzt1h" name="prop-sheet-block">
    <mxGraphModel dx="1186" dy="646" grid="1" gridSize="10" guides="1" tooltips="1" connect="1" arrows="1" fold="1" page="1" pageScale="1" pageWidth="850" pageHeight="1100" math="0" shadow="0">
      <root>
        <mxCell id="H7fMK3qKQ8lKwxVsyXLL-0" />
        <mxCell id="H7fMK3qKQ8lKwxVsyXLL-1" parent="H7fMK3qKQ8lKwxVsyXLL-0" />
        <mxCell id="5zv3vgf50802ribYR8mL-0" value="Legend" style="rounded=0;whiteSpace=wrap;html=1;fontFamily=SF Mono;fillColor=none;labelPosition=center;verticalLabelPosition=top;align=left;verticalAlign=bottom;" vertex="1" parent="H7fMK3qKQ8lKwxVsyXLL-1">
          <mxGeometry x="140" y="160" width="720" height="40" as="geometry" />
        </mxCell>
        <mxCell id="5zv3vgf50802ribYR8mL-1" value="role" style="swimlane;fontStyle=0;childLayout=stackLayout;horizontal=1;startSize=26;horizontalStack=0;resizeParent=1;resizeParentMax=0;resizeLast=0;collapsible=1;marginBottom=0;fontFamily=SF Mono;fillColor=#dae8fc;strokeColor=#6c8ebf;" vertex="1" parent="H7fMK3qKQ8lKwxVsyXLL-1">
          <mxGeometry x="300" y="590" width="140" height="78" as="geometry">
            <mxRectangle x="240" y="150" width="60" height="26" as="alternateBounds" />
          </mxGeometry>
        </mxCell>
        <mxCell id="5zv3vgf50802ribYR8mL-2" value="ADMIN" style="text;align=left;verticalAlign=top;spacingLeft=4;spacingRight=4;overflow=hidden;rotatable=0;points=[[0,0.5],[1,0.5]];portConstraint=eastwest;fontFamily=SF Mono;fillColor=#f5f5f5;strokeColor=#666666;fontColor=#333333;" vertex="1" parent="5zv3vgf50802ribYR8mL-1">
          <mxGeometry y="26" width="140" height="26" as="geometry" />
        </mxCell>
        <mxCell id="5zv3vgf50802ribYR8mL-3" value="SUPERADMIN" style="text;strokeColor=#666666;align=left;verticalAlign=top;spacingLeft=4;spacingRight=4;overflow=hidden;rotatable=0;points=[[0,0.5],[1,0.5]];portConstraint=eastwest;fontFamily=SF Mono;fillColor=#f5f5f5;fontColor=#333333;" vertex="1" parent="5zv3vgf50802ribYR8mL-1">
          <mxGeometry y="52" width="140" height="26" as="geometry" />
        </mxCell>
        <mxCell id="5zv3vgf50802ribYR8mL-4" value="collection" style="rounded=0;whiteSpace=wrap;html=1;fontFamily=SF Mono;" vertex="1" parent="H7fMK3qKQ8lKwxVsyXLL-1">
          <mxGeometry x="150" y="170" width="100" height="20" as="geometry" />
        </mxCell>
        <mxCell id="5zv3vgf50802ribYR8mL-5" value="enumeration" style="rounded=0;whiteSpace=wrap;html=1;fontFamily=SF Mono;fillColor=#dae8fc;strokeColor=#6c8ebf;" vertex="1" parent="H7fMK3qKQ8lKwxVsyXLL-1">
          <mxGeometry x="270" y="170" width="100" height="20" as="geometry" />
        </mxCell>
        <mxCell id="5zv3vgf50802ribYR8mL-6" value="forms" style="swimlane;fontStyle=0;childLayout=stackLayout;horizontal=1;startSize=26;horizontalStack=0;resizeParent=1;resizeParentMax=0;resizeLast=0;collapsible=1;marginBottom=0;fontFamily=SF Mono;" vertex="1" parent="H7fMK3qKQ8lKwxVsyXLL-1">
          <mxGeometry x="680" y="240" width="160" height="546" as="geometry">
            <mxRectangle x="240" y="150" width="60" height="26" as="alternateBounds" />
          </mxGeometry>
        </mxCell>
        <mxCell id="5zv3vgf50802ribYR8mL-7" value="client" style="text;strokeColor=#d79b00;align=left;verticalAlign=top;spacingLeft=4;spacingRight=4;overflow=hidden;rotatable=0;points=[[0,0.5],[1,0.5]];portConstraint=eastwest;fontFamily=SF Mono;fillColor=#ffe6cc;" vertex="1" parent="5zv3vgf50802ribYR8mL-6">
          <mxGeometry y="26" width="160" height="26" as="geometry" />
        </mxCell>
        <mxCell id="5zv3vgf50802ribYR8mL-8" value="questions" style="text;strokeColor=#d79b00;align=left;verticalAlign=top;spacingLeft=4;spacingRight=4;overflow=hidden;rotatable=0;points=[[0,0.5],[1,0.5]];portConstraint=eastwest;fontFamily=SF Mono;fillColor=#ffe6cc;" vertex="1" parent="5zv3vgf50802ribYR8mL-6">
          <mxGeometry y="52" width="160" height="26" as="geometry" />
        </mxCell>
        <mxCell id="5zv3vgf50802ribYR8mL-9" value="archive" style="text;align=left;verticalAlign=top;spacingLeft=4;spacingRight=4;overflow=hidden;rotatable=0;points=[[0,0.5],[1,0.5]];portConstraint=eastwest;fontFamily=SF Mono;fillColor=#e1d5e7;strokeColor=#9673a6;" vertex="1" parent="5zv3vgf50802ribYR8mL-6">
          <mxGeometry y="78" width="160" height="26" as="geometry" />
        </mxCell>
        <mxCell id="5zv3vgf50802ribYR8mL-10" value="backgroundImage" style="text;strokeColor=#666666;align=left;verticalAlign=top;spacingLeft=4;spacingRight=4;overflow=hidden;rotatable=0;points=[[0,0.5],[1,0.5]];portConstraint=eastwest;fontFamily=SF Mono;fillColor=#f5f5f5;fontColor=#333333;" vertex="1" parent="5zv3vgf50802ribYR8mL-6">
          <mxGeometry y="104" width="160" height="26" as="geometry" />
        </mxCell>
        <mxCell id="5zv3vgf50802ribYR8mL-11" value="campaign" style="text;strokeColor=#666666;align=left;verticalAlign=top;spacingLeft=4;spacingRight=4;overflow=hidden;rotatable=0;points=[[0,0.5],[1,0.5]];portConstraint=eastwest;fontFamily=SF Mono;fillColor=#f5f5f5;fontColor=#333333;" vertex="1" parent="5zv3vgf50802ribYR8mL-6">
          <mxGeometry y="130" width="160" height="26" as="geometry" />
        </mxCell>
        <mxCell id="5zv3vgf50802ribYR8mL-12" value="coverImage" style="text;strokeColor=#666666;align=left;verticalAlign=top;spacingLeft=4;spacingRight=4;overflow=hidden;rotatable=0;points=[[0,0.5],[1,0.5]];portConstraint=eastwest;fontFamily=SF Mono;fillColor=#f5f5f5;fontColor=#333333;" vertex="1" parent="5zv3vgf50802ribYR8mL-6">
          <mxGeometry y="156" width="160" height="26" as="geometry" />
        </mxCell>
        <mxCell id="5zv3vgf50802ribYR8mL-13" value="description" style="text;strokeColor=#666666;align=left;verticalAlign=top;spacingLeft=4;spacingRight=4;overflow=hidden;rotatable=0;points=[[0,0.5],[1,0.5]];portConstraint=eastwest;fontFamily=SF Mono;fillColor=#f5f5f5;fontColor=#333333;" vertex="1" parent="5zv3vgf50802ribYR8mL-6">
          <mxGeometry y="182" width="160" height="26" as="geometry" />
        </mxCell>
        <mxCell id="5zv3vgf50802ribYR8mL-14" value="createdAt" style="text;strokeColor=#666666;align=left;verticalAlign=top;spacingLeft=4;spacingRight=4;overflow=hidden;rotatable=0;points=[[0,0.5],[1,0.5]];portConstraint=eastwest;fontFamily=SF Mono;fillColor=#f5f5f5;fontColor=#333333;" vertex="1" parent="5zv3vgf50802ribYR8mL-6">
          <mxGeometry y="208" width="160" height="26" as="geometry" />
        </mxCell>
        <mxCell id="5zv3vgf50802ribYR8mL-15" value="createdBy" style="text;strokeColor=#d79b00;align=left;verticalAlign=top;spacingLeft=4;spacingRight=4;overflow=hidden;rotatable=0;points=[[0,0.5],[1,0.5]];portConstraint=eastwest;fontFamily=SF Mono;fillColor=#ffe6cc;" vertex="1" parent="5zv3vgf50802ribYR8mL-6">
          <mxGeometry y="234" width="160" height="26" as="geometry" />
        </mxCell>
        <mxCell id="5zv3vgf50802ribYR8mL-16" value="modifiedAt" style="text;strokeColor=#666666;align=left;verticalAlign=top;spacingLeft=4;spacingRight=4;overflow=hidden;rotatable=0;points=[[0,0.5],[1,0.5]];portConstraint=eastwest;fontFamily=SF Mono;fillColor=#f5f5f5;fontColor=#333333;" vertex="1" parent="5zv3vgf50802ribYR8mL-6">
          <mxGeometry y="260" width="160" height="26" as="geometry" />
        </mxCell>
        <mxCell id="5zv3vgf50802ribYR8mL-17" value="modifiedBy" style="text;strokeColor=#d79b00;align=left;verticalAlign=top;spacingLeft=4;spacingRight=4;overflow=hidden;rotatable=0;points=[[0,0.5],[1,0.5]];portConstraint=eastwest;fontFamily=SF Mono;fillColor=#ffe6cc;" vertex="1" parent="5zv3vgf50802ribYR8mL-6">
          <mxGeometry y="286" width="160" height="26" as="geometry" />
        </mxCell>
        <mxCell id="5zv3vgf50802ribYR8mL-18" value="name" style="text;strokeColor=#666666;align=left;verticalAlign=top;spacingLeft=4;spacingRight=4;overflow=hidden;rotatable=0;points=[[0,0.5],[1,0.5]];portConstraint=eastwest;fontFamily=SF Mono;fillColor=#f5f5f5;fontColor=#333333;" vertex="1" parent="5zv3vgf50802ribYR8mL-6">
          <mxGeometry y="312" width="160" height="26" as="geometry" />
        </mxCell>
        <mxCell id="5zv3vgf50802ribYR8mL-19" value="rewards" style="text;strokeColor=#d79b00;align=left;verticalAlign=top;spacingLeft=4;spacingRight=4;overflow=hidden;rotatable=0;points=[[0,0.5],[1,0.5]];portConstraint=eastwest;fontFamily=SF Mono;fillColor=#ffe6cc;" vertex="1" parent="5zv3vgf50802ribYR8mL-6">
          <mxGeometry y="338" width="160" height="26" as="geometry" />
        </mxCell>
        <mxCell id="5zv3vgf50802ribYR8mL-20" value="primaryColor" style="text;strokeColor=#82b366;align=left;verticalAlign=top;spacingLeft=4;spacingRight=4;overflow=hidden;rotatable=0;points=[[0,0.5],[1,0.5]];portConstraint=eastwest;fontFamily=SF Mono;fillColor=#d5e8d4;" vertex="1" parent="5zv3vgf50802ribYR8mL-6">
          <mxGeometry y="364" width="160" height="26" as="geometry" />
        </mxCell>
        <mxCell id="5zv3vgf50802ribYR8mL-21" value="published" style="text;strokeColor=#9673a6;align=left;verticalAlign=top;spacingLeft=4;spacingRight=4;overflow=hidden;rotatable=0;points=[[0,0.5],[1,0.5]];portConstraint=eastwest;fontFamily=SF Mono;fillColor=#e1d5e7;" vertex="1" parent="5zv3vgf50802ribYR8mL-6">
          <mxGeometry y="390" width="160" height="26" as="geometry" />
        </mxCell>
        <mxCell id="5zv3vgf50802ribYR8mL-22" value="requireVerifiedUser" style="text;strokeColor=#9673a6;align=left;verticalAlign=top;spacingLeft=4;spacingRight=4;overflow=hidden;rotatable=0;points=[[0,0.5],[1,0.5]];portConstraint=eastwest;fontFamily=SF Mono;fillColor=#e1d5e7;" vertex="1" parent="5zv3vgf50802ribYR8mL-6">
          <mxGeometry y="416" width="160" height="26" as="geometry" />
        </mxCell>
        <mxCell id="5zv3vgf50802ribYR8mL-23" value="tags" style="text;strokeColor=#82b366;align=left;verticalAlign=top;spacingLeft=4;spacingRight=4;overflow=hidden;rotatable=0;points=[[0,0.5],[1,0.5]];portConstraint=eastwest;fontFamily=SF Mono;fillColor=#d5e8d4;" vertex="1" parent="5zv3vgf50802ribYR8mL-6">
          <mxGeometry y="442" width="160" height="26" as="geometry" />
        </mxCell>
        <mxCell id="5zv3vgf50802ribYR8mL-24" value="thanks" style="text;strokeColor=#666666;align=left;verticalAlign=top;spacingLeft=4;spacingRight=4;overflow=hidden;rotatable=0;points=[[0,0.5],[1,0.5]];portConstraint=eastwest;fontFamily=SF Mono;fillColor=#f5f5f5;fontColor=#333333;" vertex="1" parent="5zv3vgf50802ribYR8mL-6">
          <mxGeometry y="468" width="160" height="26" as="geometry" />
        </mxCell>
        <mxCell id="5zv3vgf50802ribYR8mL-25" value="thanksImage" style="text;strokeColor=#666666;align=left;verticalAlign=top;spacingLeft=4;spacingRight=4;overflow=hidden;rotatable=0;points=[[0,0.5],[1,0.5]];portConstraint=eastwest;fontFamily=SF Mono;fillColor=#f5f5f5;fontColor=#333333;" vertex="1" parent="5zv3vgf50802ribYR8mL-6">
          <mxGeometry y="494" width="160" height="26" as="geometry" />
        </mxCell>
        <mxCell id="5zv3vgf50802ribYR8mL-26" value="thanksTitle" style="text;strokeColor=#666666;align=left;verticalAlign=top;spacingLeft=4;spacingRight=4;overflow=hidden;rotatable=0;points=[[0,0.5],[1,0.5]];portConstraint=eastwest;fontFamily=SF Mono;fillColor=#f5f5f5;fontColor=#333333;" vertex="1" parent="5zv3vgf50802ribYR8mL-6">
          <mxGeometry y="520" width="160" height="26" as="geometry" />
        </mxCell>
        <mxCell id="5zv3vgf50802ribYR8mL-27" value="" style="edgeStyle=orthogonalEdgeStyle;rounded=0;orthogonalLoop=1;jettySize=auto;html=1;fontFamily=SF Mono;endArrow=none;endFill=0;entryX=1;entryY=0.5;entryDx=0;entryDy=0;startArrow=openThin;startFill=0;exitX=0.5;exitY=0;exitDx=0;exitDy=0;" edge="1" parent="H7fMK3qKQ8lKwxVsyXLL-1" source="5zv3vgf50802ribYR8mL-28" target="5zv3vgf50802ribYR8mL-8">
          <mxGeometry relative="1" as="geometry">
            <mxPoint x="1030" y="840" as="targetPoint" />
          </mxGeometry>
        </mxCell>
        <mxCell id="5zv3vgf50802ribYR8mL-28" value="questions" style="swimlane;fontStyle=0;childLayout=stackLayout;horizontal=1;startSize=26;horizontalStack=0;resizeParent=1;resizeParentMax=0;resizeLast=0;collapsible=1;marginBottom=0;fontFamily=SF Mono;" vertex="1" parent="H7fMK3qKQ8lKwxVsyXLL-1">
          <mxGeometry x="860" y="330" width="140" height="260" as="geometry">
            <mxRectangle x="240" y="150" width="60" height="26" as="alternateBounds" />
          </mxGeometry>
        </mxCell>
        <mxCell id="5zv3vgf50802ribYR8mL-29" value="choices" style="text;strokeColor=#d79b00;align=left;verticalAlign=top;spacingLeft=4;spacingRight=4;overflow=hidden;rotatable=0;points=[[0,0.5],[1,0.5]];portConstraint=eastwest;fontFamily=SF Mono;fillColor=#ffe6cc;" vertex="1" parent="5zv3vgf50802ribYR8mL-28">
          <mxGeometry y="26" width="140" height="26" as="geometry" />
        </mxCell>
        <mxCell id="5zv3vgf50802ribYR8mL-30" value="axisLabels" style="text;strokeColor=#82b366;align=left;verticalAlign=top;spacingLeft=4;spacingRight=4;overflow=hidden;rotatable=0;points=[[0,0.5],[1,0.5]];portConstraint=eastwest;fontFamily=SF Mono;fillColor=#d5e8d4;" vertex="1" parent="5zv3vgf50802ribYR8mL-28">
          <mxGeometry y="52" width="140" height="26" as="geometry" />
        </mxCell>
        <mxCell id="5zv3vgf50802ribYR8mL-31" value="description" style="text;strokeColor=#666666;align=left;verticalAlign=top;spacingLeft=4;spacingRight=4;overflow=hidden;rotatable=0;points=[[0,0.5],[1,0.5]];portConstraint=eastwest;fontFamily=SF Mono;fillColor=#f5f5f5;fontColor=#333333;" vertex="1" parent="5zv3vgf50802ribYR8mL-28">
          <mxGeometry y="78" width="140" height="26" as="geometry" />
        </mxCell>
        <mxCell id="5zv3vgf50802ribYR8mL-32" value="id" style="text;strokeColor=#666666;align=left;verticalAlign=top;spacingLeft=4;spacingRight=4;overflow=hidden;rotatable=0;points=[[0,0.5],[1,0.5]];portConstraint=eastwest;fontFamily=SF Mono;fillColor=#f5f5f5;fontColor=#333333;" vertex="1" parent="5zv3vgf50802ribYR8mL-28">
          <mxGeometry y="104" width="140" height="26" as="geometry" />
        </mxCell>
        <mxCell id="5zv3vgf50802ribYR8mL-33" value="imageUpload" style="text;strokeColor=#666666;align=left;verticalAlign=top;spacingLeft=4;spacingRight=4;overflow=hidden;rotatable=0;points=[[0,0.5],[1,0.5]];portConstraint=eastwest;fontFamily=SF Mono;fillColor=#f5f5f5;fontColor=#333333;" vertex="1" parent="5zv3vgf50802ribYR8mL-28">
          <mxGeometry y="130" width="140" height="26" as="geometry" />
        </mxCell>
        <mxCell id="5zv3vgf50802ribYR8mL-34" value="textAnswer" style="text;strokeColor=#666666;align=left;verticalAlign=top;spacingLeft=4;spacingRight=4;overflow=hidden;rotatable=0;points=[[0,0.5],[1,0.5]];portConstraint=eastwest;fontFamily=SF Mono;fillColor=#f5f5f5;fontColor=#333333;" vertex="1" parent="5zv3vgf50802ribYR8mL-28">
          <mxGeometry y="156" width="140" height="26" as="geometry" />
        </mxCell>
        <mxCell id="5zv3vgf50802ribYR8mL-35" value="answerType" style="text;align=left;verticalAlign=top;spacingLeft=4;spacingRight=4;overflow=hidden;rotatable=0;points=[[0,0.5],[1,0.5]];portConstraint=eastwest;fontFamily=SF Mono;fillColor=#dae8fc;strokeColor=#6c8ebf;" vertex="1" parent="5zv3vgf50802ribYR8mL-28">
          <mxGeometry y="182" width="140" height="26" as="geometry" />
        </mxCell>
        <mxCell id="5zv3vgf50802ribYR8mL-36" value="text" style="text;strokeColor=#666666;align=left;verticalAlign=top;spacingLeft=4;spacingRight=4;overflow=hidden;rotatable=0;points=[[0,0.5],[1,0.5]];portConstraint=eastwest;fontFamily=SF Mono;fillColor=#f5f5f5;fontColor=#333333;" vertex="1" parent="5zv3vgf50802ribYR8mL-28">
          <mxGeometry y="208" width="140" height="26" as="geometry" />
        </mxCell>
        <mxCell id="5zv3vgf50802ribYR8mL-37" value="widget" style="text;strokeColor=#6c8ebf;align=left;verticalAlign=top;spacingLeft=4;spacingRight=4;overflow=hidden;rotatable=0;points=[[0,0.5],[1,0.5]];portConstraint=eastwest;fontFamily=SF Mono;fillColor=#dae8fc;" vertex="1" parent="5zv3vgf50802ribYR8mL-28">
          <mxGeometry y="234" width="140" height="26" as="geometry" />
        </mxCell>
        <mxCell id="5zv3vgf50802ribYR8mL-38" value="choices" style="swimlane;fontStyle=0;childLayout=stackLayout;horizontal=1;startSize=26;horizontalStack=0;resizeParent=1;resizeParentMax=0;resizeLast=0;collapsible=1;marginBottom=0;fontFamily=SF Mono;" vertex="1" parent="H7fMK3qKQ8lKwxVsyXLL-1">
          <mxGeometry x="1020" y="390" width="80" height="104" as="geometry">
            <mxRectangle x="240" y="150" width="60" height="26" as="alternateBounds" />
          </mxGeometry>
        </mxCell>
        <mxCell id="5zv3vgf50802ribYR8mL-39" value="id" style="text;align=left;verticalAlign=top;spacingLeft=4;spacingRight=4;overflow=hidden;rotatable=0;points=[[0,0.5],[1,0.5]];portConstraint=eastwest;fontFamily=SF Mono;fillColor=#f5f5f5;strokeColor=#666666;fontColor=#333333;" vertex="1" parent="5zv3vgf50802ribYR8mL-38">
          <mxGeometry y="26" width="80" height="26" as="geometry" />
        </mxCell>
        <mxCell id="5zv3vgf50802ribYR8mL-40" value="image" style="text;strokeColor=#666666;align=left;verticalAlign=top;spacingLeft=4;spacingRight=4;overflow=hidden;rotatable=0;points=[[0,0.5],[1,0.5]];portConstraint=eastwest;fontFamily=SF Mono;fillColor=#f5f5f5;fontColor=#333333;" vertex="1" parent="5zv3vgf50802ribYR8mL-38">
          <mxGeometry y="52" width="80" height="26" as="geometry" />
        </mxCell>
        <mxCell id="5zv3vgf50802ribYR8mL-41" value="name" style="text;strokeColor=#666666;align=left;verticalAlign=top;spacingLeft=4;spacingRight=4;overflow=hidden;rotatable=0;points=[[0,0.5],[1,0.5]];portConstraint=eastwest;fontFamily=SF Mono;fillColor=#f5f5f5;fontColor=#333333;" vertex="1" parent="5zv3vgf50802ribYR8mL-38">
          <mxGeometry y="78" width="80" height="26" as="geometry" />
        </mxCell>
        <mxCell id="5zv3vgf50802ribYR8mL-42" style="edgeStyle=orthogonalEdgeStyle;rounded=0;orthogonalLoop=1;jettySize=auto;html=1;exitX=1;exitY=0.5;exitDx=0;exitDy=0;entryX=0.5;entryY=0;entryDx=0;entryDy=0;fontFamily=SF Mono;startArrow=none;startFill=0;endArrow=openThin;endFill=0;" edge="1" parent="H7fMK3qKQ8lKwxVsyXLL-1" source="5zv3vgf50802ribYR8mL-29" target="5zv3vgf50802ribYR8mL-38">
          <mxGeometry relative="1" as="geometry" />
        </mxCell>
        <mxCell id="5zv3vgf50802ribYR8mL-43" style="edgeStyle=orthogonalEdgeStyle;rounded=0;orthogonalLoop=1;jettySize=auto;html=1;exitX=0;exitY=0.5;exitDx=0;exitDy=0;entryX=0.5;entryY=0;entryDx=0;entryDy=0;fontFamily=SF Mono;startArrow=none;startFill=0;endArrow=blockThin;endFill=1;" edge="1" parent="H7fMK3qKQ8lKwxVsyXLL-1" source="5zv3vgf50802ribYR8mL-7" target="5zv3vgf50802ribYR8mL-94">
          <mxGeometry relative="1" as="geometry" />
        </mxCell>
        <mxCell id="5zv3vgf50802ribYR8mL-44" value="&amp;nbsp;&amp;nbsp;" style="edgeLabel;html=1;align=center;verticalAlign=middle;resizable=0;points=[];fontFamily=SF Mono;" vertex="1" connectable="0" parent="5zv3vgf50802ribYR8mL-43">
          <mxGeometry x="-0.5207" relative="1" as="geometry">
            <mxPoint x="9" as="offset" />
          </mxGeometry>
        </mxCell>
        <mxCell id="5zv3vgf50802ribYR8mL-45" style="edgeStyle=orthogonalEdgeStyle;rounded=0;orthogonalLoop=1;jettySize=auto;html=1;exitX=0;exitY=0.5;exitDx=0;exitDy=0;entryX=0.5;entryY=0;entryDx=0;entryDy=0;fontFamily=SF Mono;startArrow=none;startFill=0;endArrow=blockThin;endFill=1;" edge="1" parent="H7fMK3qKQ8lKwxVsyXLL-1" source="5zv3vgf50802ribYR8mL-46" target="5zv3vgf50802ribYR8mL-60">
          <mxGeometry relative="1" as="geometry">
            <Array as="points">
              <mxPoint x="260" y="357" />
              <mxPoint x="260" y="540" />
              <mxPoint x="210" y="540" />
            </Array>
          </mxGeometry>
        </mxCell>
        <mxCell id="5zv3vgf50802ribYR8mL-46" value="responses" style="swimlane;fontStyle=0;childLayout=stackLayout;horizontal=1;startSize=26;horizontalStack=0;resizeParent=1;resizeParentMax=0;resizeLast=0;collapsible=1;marginBottom=0;fontFamily=SF Mono;" vertex="1" parent="H7fMK3qKQ8lKwxVsyXLL-1">
          <mxGeometry x="300" y="240" width="140" height="234" as="geometry">
            <mxRectangle x="240" y="150" width="60" height="26" as="alternateBounds" />
          </mxGeometry>
        </mxCell>
        <mxCell id="5zv3vgf50802ribYR8mL-47" value="client" style="text;align=left;verticalAlign=top;spacingLeft=4;spacingRight=4;overflow=hidden;rotatable=0;points=[[0,0.5],[1,0.5]];portConstraint=eastwest;fontFamily=SF Mono;fillColor=#ffe6cc;strokeColor=#d79b00;" vertex="1" parent="5zv3vgf50802ribYR8mL-46">
          <mxGeometry y="26" width="140" height="26" as="geometry" />
        </mxCell>
        <mxCell id="5zv3vgf50802ribYR8mL-48" value="answers" style="text;strokeColor=#d79b00;align=left;verticalAlign=top;spacingLeft=4;spacingRight=4;overflow=hidden;rotatable=0;points=[[0,0.5],[1,0.5]];portConstraint=eastwest;fontFamily=SF Mono;fillColor=#ffe6cc;" vertex="1" parent="5zv3vgf50802ribYR8mL-46">
          <mxGeometry y="52" width="140" height="26" as="geometry" />
        </mxCell>
        <mxCell id="5zv3vgf50802ribYR8mL-49" value="createdAt" style="text;strokeColor=#666666;align=left;verticalAlign=top;spacingLeft=4;spacingRight=4;overflow=hidden;rotatable=0;points=[[0,0.5],[1,0.5]];portConstraint=eastwest;fontFamily=SF Mono;fillColor=#f5f5f5;fontColor=#333333;" vertex="1" parent="5zv3vgf50802ribYR8mL-46">
          <mxGeometry y="78" width="140" height="26" as="geometry" />
        </mxCell>
        <mxCell id="5zv3vgf50802ribYR8mL-50" value="createdBy" style="text;strokeColor=#d79b00;align=left;verticalAlign=top;spacingLeft=4;spacingRight=4;overflow=hidden;rotatable=0;points=[[0,0.5],[1,0.5]];portConstraint=eastwest;fontFamily=SF Mono;fillColor=#ffe6cc;" vertex="1" parent="5zv3vgf50802ribYR8mL-46">
          <mxGeometry y="104" width="140" height="26" as="geometry" />
        </mxCell>
        <mxCell id="5zv3vgf50802ribYR8mL-51" value="initialized" style="text;strokeColor=#82b366;align=left;verticalAlign=top;spacingLeft=4;spacingRight=4;overflow=hidden;rotatable=0;points=[[0,0.5],[1,0.5]];portConstraint=eastwest;fontFamily=SF Mono;fillColor=#d5e8d4;" vertex="1" parent="5zv3vgf50802ribYR8mL-46">
          <mxGeometry y="130" width="140" height="26" as="geometry" />
        </mxCell>
        <mxCell id="5zv3vgf50802ribYR8mL-52" value="form" style="text;strokeColor=#d79b00;align=left;verticalAlign=top;spacingLeft=4;spacingRight=4;overflow=hidden;rotatable=0;points=[[0,0.5],[1,0.5]];portConstraint=eastwest;fontFamily=SF Mono;fillColor=#ffe6cc;" vertex="1" parent="5zv3vgf50802ribYR8mL-46">
          <mxGeometry y="156" width="140" height="26" as="geometry" />
        </mxCell>
        <mxCell id="5zv3vgf50802ribYR8mL-53" value="claim" style="text;strokeColor=#d79b00;align=left;verticalAlign=top;spacingLeft=4;spacingRight=4;overflow=hidden;rotatable=0;points=[[0,0.5],[1,0.5]];portConstraint=eastwest;fontFamily=SF Mono;fillColor=#ffe6cc;" vertex="1" parent="5zv3vgf50802ribYR8mL-46">
          <mxGeometry y="182" width="140" height="26" as="geometry" />
        </mxCell>
        <mxCell id="5zv3vgf50802ribYR8mL-54" value="reward" style="text;strokeColor=#d79b00;align=left;verticalAlign=top;spacingLeft=4;spacingRight=4;overflow=hidden;rotatable=0;points=[[0,0.5],[1,0.5]];portConstraint=eastwest;fontFamily=SF Mono;fillColor=#ffe6cc;" vertex="1" parent="5zv3vgf50802ribYR8mL-46">
          <mxGeometry y="208" width="140" height="26" as="geometry" />
        </mxCell>
        <mxCell id="5zv3vgf50802ribYR8mL-55" value="answers" style="swimlane;fontStyle=0;childLayout=stackLayout;horizontal=1;startSize=26;horizontalStack=0;resizeParent=1;resizeParentMax=0;resizeLast=0;collapsible=1;marginBottom=0;fontFamily=SF Mono;" vertex="1" parent="H7fMK3qKQ8lKwxVsyXLL-1">
          <mxGeometry x="140" y="330" width="100" height="104" as="geometry">
            <mxRectangle x="240" y="150" width="60" height="26" as="alternateBounds" />
          </mxGeometry>
        </mxCell>
        <mxCell id="5zv3vgf50802ribYR8mL-56" value="choice" style="text;align=left;verticalAlign=top;spacingLeft=4;spacingRight=4;overflow=hidden;rotatable=0;points=[[0,0.5],[1,0.5]];portConstraint=eastwest;fontFamily=SF Mono;fillColor=#ffe6cc;strokeColor=#d79b00;" vertex="1" parent="5zv3vgf50802ribYR8mL-55">
          <mxGeometry y="26" width="100" height="26" as="geometry" />
        </mxCell>
        <mxCell id="5zv3vgf50802ribYR8mL-57" value="question" style="text;strokeColor=#d79b00;align=left;verticalAlign=top;spacingLeft=4;spacingRight=4;overflow=hidden;rotatable=0;points=[[0,0.5],[1,0.5]];portConstraint=eastwest;fontFamily=SF Mono;fillColor=#ffe6cc;" vertex="1" parent="5zv3vgf50802ribYR8mL-55">
          <mxGeometry y="52" width="100" height="26" as="geometry" />
        </mxCell>
        <mxCell id="5zv3vgf50802ribYR8mL-58" value="value?" style="text;strokeColor=#666666;align=left;verticalAlign=top;spacingLeft=4;spacingRight=4;overflow=hidden;rotatable=0;points=[[0,0.5],[1,0.5]];portConstraint=eastwest;fontFamily=SF Mono;fillColor=#f5f5f5;fontColor=#333333;" vertex="1" parent="5zv3vgf50802ribYR8mL-55">
          <mxGeometry y="78" width="100" height="26" as="geometry" />
        </mxCell>
        <mxCell id="5zv3vgf50802ribYR8mL-59" style="edgeStyle=orthogonalEdgeStyle;rounded=0;orthogonalLoop=1;jettySize=auto;html=1;exitX=0;exitY=0.5;exitDx=0;exitDy=0;entryX=0.5;entryY=0;entryDx=0;entryDy=0;fontFamily=SF Mono;startArrow=none;startFill=0;endArrow=blockThin;endFill=1;" edge="1" parent="H7fMK3qKQ8lKwxVsyXLL-1" source="5zv3vgf50802ribYR8mL-48" target="5zv3vgf50802ribYR8mL-55">
          <mxGeometry relative="1" as="geometry" />
        </mxCell>
        <mxCell id="5zv3vgf50802ribYR8mL-60" value="users" style="swimlane;fontStyle=0;childLayout=stackLayout;horizontal=1;startSize=26;horizontalStack=0;resizeParent=1;resizeParentMax=0;resizeLast=0;collapsible=1;marginBottom=0;fontFamily=SF Mono;" vertex="1" parent="H7fMK3qKQ8lKwxVsyXLL-1">
          <mxGeometry x="140" y="590" width="140" height="130" as="geometry">
            <mxRectangle x="240" y="150" width="60" height="26" as="alternateBounds" />
          </mxGeometry>
        </mxCell>
        <mxCell id="5zv3vgf50802ribYR8mL-61" value="avatar" style="text;align=left;verticalAlign=top;spacingLeft=4;spacingRight=4;overflow=hidden;rotatable=0;points=[[0,0.5],[1,0.5]];portConstraint=eastwest;fontFamily=SF Mono;fillColor=#f5f5f5;strokeColor=#666666;fontColor=#333333;" vertex="1" parent="5zv3vgf50802ribYR8mL-60">
          <mxGeometry y="26" width="140" height="26" as="geometry" />
        </mxCell>
        <mxCell id="5zv3vgf50802ribYR8mL-62" value="email" style="text;strokeColor=#666666;align=left;verticalAlign=top;spacingLeft=4;spacingRight=4;overflow=hidden;rotatable=0;points=[[0,0.5],[1,0.5]];portConstraint=eastwest;fontFamily=SF Mono;fillColor=#f5f5f5;fontColor=#333333;" vertex="1" parent="5zv3vgf50802ribYR8mL-60">
          <mxGeometry y="52" width="140" height="26" as="geometry" />
        </mxCell>
        <mxCell id="5zv3vgf50802ribYR8mL-63" value="name" style="text;strokeColor=#666666;align=left;verticalAlign=top;spacingLeft=4;spacingRight=4;overflow=hidden;rotatable=0;points=[[0,0.5],[1,0.5]];portConstraint=eastwest;fontFamily=SF Mono;fillColor=#f5f5f5;fontColor=#333333;" vertex="1" parent="5zv3vgf50802ribYR8mL-60">
          <mxGeometry y="78" width="140" height="26" as="geometry" />
        </mxCell>
        <mxCell id="5zv3vgf50802ribYR8mL-64" value="claims?" style="text;strokeColor=#d79b00;align=left;verticalAlign=top;spacingLeft=4;spacingRight=4;overflow=hidden;rotatable=0;points=[[0,0.5],[1,0.5]];portConstraint=eastwest;fontFamily=SF Mono;fillColor=#ffe6cc;" vertex="1" parent="5zv3vgf50802ribYR8mL-60">
          <mxGeometry y="104" width="140" height="26" as="geometry" />
        </mxCell>
        <mxCell id="5zv3vgf50802ribYR8mL-65" value="claims" style="swimlane;fontStyle=0;childLayout=stackLayout;horizontal=1;startSize=26;horizontalStack=0;resizeParent=1;resizeParentMax=0;resizeLast=0;collapsible=1;marginBottom=0;fontFamily=SF Mono;" vertex="1" parent="H7fMK3qKQ8lKwxVsyXLL-1">
          <mxGeometry x="330" y="730" width="140" height="156" as="geometry">
            <mxRectangle x="240" y="150" width="60" height="26" as="alternateBounds" />
          </mxGeometry>
        </mxCell>
        <mxCell id="5zv3vgf50802ribYR8mL-66" value="reward" style="text;strokeColor=#d79b00;align=left;verticalAlign=top;spacingLeft=4;spacingRight=4;overflow=hidden;rotatable=0;points=[[0,0.5],[1,0.5]];portConstraint=eastwest;fontFamily=SF Mono;fillColor=#ffe6cc;" vertex="1" parent="5zv3vgf50802ribYR8mL-65">
          <mxGeometry y="26" width="140" height="26" as="geometry" />
        </mxCell>
        <mxCell id="5zv3vgf50802ribYR8mL-67" value="client" style="text;align=left;verticalAlign=top;spacingLeft=4;spacingRight=4;overflow=hidden;rotatable=0;points=[[0,0.5],[1,0.5]];portConstraint=eastwest;fontFamily=SF Mono;fillColor=#ffe6cc;strokeColor=#d79b00;" vertex="1" parent="5zv3vgf50802ribYR8mL-65">
          <mxGeometry y="52" width="140" height="26" as="geometry" />
        </mxCell>
        <mxCell id="5zv3vgf50802ribYR8mL-68" value="createdAt" style="text;strokeColor=#666666;align=left;verticalAlign=top;spacingLeft=4;spacingRight=4;overflow=hidden;rotatable=0;points=[[0,0.5],[1,0.5]];portConstraint=eastwest;fontFamily=SF Mono;fillColor=#f5f5f5;fontColor=#333333;" vertex="1" parent="5zv3vgf50802ribYR8mL-65">
          <mxGeometry y="78" width="140" height="26" as="geometry" />
        </mxCell>
        <mxCell id="5zv3vgf50802ribYR8mL-69" value="form" style="text;strokeColor=#d79b00;align=left;verticalAlign=top;spacingLeft=4;spacingRight=4;overflow=hidden;rotatable=0;points=[[0,0.5],[1,0.5]];portConstraint=eastwest;fontFamily=SF Mono;fillColor=#ffe6cc;" vertex="1" parent="5zv3vgf50802ribYR8mL-65">
          <mxGeometry y="104" width="140" height="26" as="geometry" />
        </mxCell>
        <mxCell id="5zv3vgf50802ribYR8mL-70" value="used" style="text;strokeColor=#9673a6;align=left;verticalAlign=top;spacingLeft=4;spacingRight=4;overflow=hidden;rotatable=0;points=[[0,0.5],[1,0.5]];portConstraint=eastwest;fontFamily=SF Mono;fillColor=#e1d5e7;" vertex="1" parent="5zv3vgf50802ribYR8mL-65">
          <mxGeometry y="130" width="140" height="26" as="geometry" />
        </mxCell>
        <mxCell id="5zv3vgf50802ribYR8mL-71" style="edgeStyle=orthogonalEdgeStyle;rounded=0;orthogonalLoop=1;jettySize=auto;html=1;exitX=1;exitY=0.5;exitDx=0;exitDy=0;entryX=0.5;entryY=0;entryDx=0;entryDy=0;fontFamily=SF Mono;startArrow=none;startFill=0;endArrow=blockThin;endFill=1;" edge="1" parent="H7fMK3qKQ8lKwxVsyXLL-1" source="5zv3vgf50802ribYR8mL-47" target="5zv3vgf50802ribYR8mL-94">
          <mxGeometry relative="1" as="geometry" />
        </mxCell>
        <mxCell id="5zv3vgf50802ribYR8mL-72" value="&amp;nbsp;&amp;nbsp;" style="edgeLabel;html=1;align=center;verticalAlign=middle;resizable=0;points=[];fontFamily=SF Mono;" vertex="1" connectable="0" parent="5zv3vgf50802ribYR8mL-71">
          <mxGeometry x="-0.3913" relative="1" as="geometry">
            <mxPoint x="-9" as="offset" />
          </mxGeometry>
        </mxCell>
        <mxCell id="5zv3vgf50802ribYR8mL-73" style="edgeStyle=orthogonalEdgeStyle;rounded=0;orthogonalLoop=1;jettySize=auto;html=1;exitX=1;exitY=0.5;exitDx=0;exitDy=0;entryX=0.5;entryY=0;entryDx=0;entryDy=0;fontFamily=SF Mono;startArrow=none;startFill=0;endArrow=blockThin;endFill=1;" edge="1" parent="H7fMK3qKQ8lKwxVsyXLL-1" source="5zv3vgf50802ribYR8mL-64" target="5zv3vgf50802ribYR8mL-65">
          <mxGeometry relative="1" as="geometry" />
        </mxCell>
        <mxCell id="5zv3vgf50802ribYR8mL-74" value="answerType" style="swimlane;fontStyle=0;childLayout=stackLayout;horizontal=1;startSize=26;horizontalStack=0;resizeParent=1;resizeParentMax=0;resizeLast=0;collapsible=1;marginBottom=0;fontFamily=SF Mono;fillColor=#dae8fc;strokeColor=#6c8ebf;" vertex="1" parent="H7fMK3qKQ8lKwxVsyXLL-1">
          <mxGeometry x="1040" y="550" width="120" height="130" as="geometry">
            <mxRectangle x="240" y="150" width="60" height="26" as="alternateBounds" />
          </mxGeometry>
        </mxCell>
        <mxCell id="5zv3vgf50802ribYR8mL-75" value="Single rating" style="text;align=left;verticalAlign=top;spacingLeft=4;spacingRight=4;overflow=hidden;rotatable=0;points=[[0,0.5],[1,0.5]];portConstraint=eastwest;fontFamily=SF Mono;fillColor=#f5f5f5;strokeColor=#666666;fontColor=#333333;" vertex="1" parent="5zv3vgf50802ribYR8mL-74">
          <mxGeometry y="26" width="120" height="26" as="geometry" />
        </mxCell>
        <mxCell id="5zv3vgf50802ribYR8mL-76" value="Multi rating" style="text;strokeColor=#666666;align=left;verticalAlign=top;spacingLeft=4;spacingRight=4;overflow=hidden;rotatable=0;points=[[0,0.5],[1,0.5]];portConstraint=eastwest;fontFamily=SF Mono;fillColor=#f5f5f5;fontColor=#333333;" vertex="1" parent="5zv3vgf50802ribYR8mL-74">
          <mxGeometry y="52" width="120" height="26" as="geometry" />
        </mxCell>
        <mxCell id="5zv3vgf50802ribYR8mL-77" value="Single choice" style="text;strokeColor=#666666;align=left;verticalAlign=top;spacingLeft=4;spacingRight=4;overflow=hidden;rotatable=0;points=[[0,0.5],[1,0.5]];portConstraint=eastwest;fontFamily=SF Mono;fillColor=#f5f5f5;fontColor=#333333;" vertex="1" parent="5zv3vgf50802ribYR8mL-74">
          <mxGeometry y="78" width="120" height="26" as="geometry" />
        </mxCell>
        <mxCell id="5zv3vgf50802ribYR8mL-78" value="Multi choice" style="text;strokeColor=#666666;align=left;verticalAlign=top;spacingLeft=4;spacingRight=4;overflow=hidden;rotatable=0;points=[[0,0.5],[1,0.5]];portConstraint=eastwest;fontFamily=SF Mono;fillColor=#f5f5f5;fontColor=#333333;" vertex="1" parent="5zv3vgf50802ribYR8mL-74">
          <mxGeometry y="104" width="120" height="26" as="geometry" />
        </mxCell>
        <mxCell id="5zv3vgf50802ribYR8mL-79" style="edgeStyle=orthogonalEdgeStyle;rounded=0;orthogonalLoop=1;jettySize=auto;html=1;exitX=0;exitY=0.5;exitDx=0;exitDy=0;entryX=0.5;entryY=0;entryDx=0;entryDy=0;fontFamily=SF Mono;startArrow=none;startFill=0;endArrow=blockThin;endFill=1;" edge="1" parent="H7fMK3qKQ8lKwxVsyXLL-1" source="5zv3vgf50802ribYR8mL-120" target="5zv3vgf50802ribYR8mL-1">
          <mxGeometry relative="1" as="geometry" />
        </mxCell>
        <mxCell id="5zv3vgf50802ribYR8mL-80" style="edgeStyle=orthogonalEdgeStyle;rounded=0;orthogonalLoop=1;jettySize=auto;html=1;exitX=1;exitY=0.5;exitDx=0;exitDy=0;entryX=0.5;entryY=0;entryDx=0;entryDy=0;fontFamily=SF Mono;startArrow=none;startFill=0;endArrow=blockThin;endFill=1;" edge="1" parent="H7fMK3qKQ8lKwxVsyXLL-1" source="5zv3vgf50802ribYR8mL-35" target="5zv3vgf50802ribYR8mL-74">
          <mxGeometry relative="1" as="geometry" />
        </mxCell>
        <mxCell id="5zv3vgf50802ribYR8mL-81" value="widget" style="swimlane;fontStyle=0;childLayout=stackLayout;horizontal=1;startSize=26;horizontalStack=0;resizeParent=1;resizeParentMax=0;resizeLast=0;collapsible=1;marginBottom=0;fontFamily=SF Mono;fillColor=#dae8fc;strokeColor=#6c8ebf;" vertex="1" parent="H7fMK3qKQ8lKwxVsyXLL-1">
          <mxGeometry x="960" y="708" width="120" height="78" as="geometry">
            <mxRectangle x="240" y="150" width="60" height="26" as="alternateBounds" />
          </mxGeometry>
        </mxCell>
        <mxCell id="5zv3vgf50802ribYR8mL-82" value="carousel" style="text;align=left;verticalAlign=top;spacingLeft=4;spacingRight=4;overflow=hidden;rotatable=0;points=[[0,0.5],[1,0.5]];portConstraint=eastwest;fontFamily=SF Mono;fillColor=#f5f5f5;strokeColor=#666666;fontColor=#333333;" vertex="1" parent="5zv3vgf50802ribYR8mL-81">
          <mxGeometry y="26" width="120" height="26" as="geometry" />
        </mxCell>
        <mxCell id="5zv3vgf50802ribYR8mL-83" value="list" style="text;align=left;verticalAlign=top;spacingLeft=4;spacingRight=4;overflow=hidden;rotatable=0;points=[[0,0.5],[1,0.5]];portConstraint=eastwest;fontFamily=SF Mono;fillColor=#f5f5f5;strokeColor=#666666;fontColor=#333333;" vertex="1" parent="5zv3vgf50802ribYR8mL-81">
          <mxGeometry y="52" width="120" height="26" as="geometry" />
        </mxCell>
        <mxCell id="5zv3vgf50802ribYR8mL-84" style="edgeStyle=orthogonalEdgeStyle;rounded=0;orthogonalLoop=1;jettySize=auto;html=1;exitX=0;exitY=0.5;exitDx=0;exitDy=0;entryX=0.5;entryY=0;entryDx=0;entryDy=0;fontFamily=SF Mono;startArrow=none;startFill=0;endArrow=blockThin;endFill=1;" edge="1" parent="H7fMK3qKQ8lKwxVsyXLL-1" source="5zv3vgf50802ribYR8mL-119" target="5zv3vgf50802ribYR8mL-60">
          <mxGeometry relative="1" as="geometry" />
        </mxCell>
        <mxCell id="5zv3vgf50802ribYR8mL-85" style="edgeStyle=orthogonalEdgeStyle;rounded=0;orthogonalLoop=1;jettySize=auto;html=1;exitX=1;exitY=0.5;exitDx=0;exitDy=0;entryX=0.5;entryY=0;entryDx=0;entryDy=0;fontFamily=SF Mono;startArrow=none;startFill=0;endArrow=blockThin;endFill=1;" edge="1" parent="H7fMK3qKQ8lKwxVsyXLL-1" source="5zv3vgf50802ribYR8mL-66" target="5zv3vgf50802ribYR8mL-105">
          <mxGeometry relative="1" as="geometry" />
        </mxCell>
        <mxCell id="5zv3vgf50802ribYR8mL-86" value="&amp;nbsp;&amp;nbsp;" style="edgeLabel;html=1;align=center;verticalAlign=middle;resizable=0;points=[];fontFamily=SF Mono;" vertex="1" connectable="0" parent="5zv3vgf50802ribYR8mL-85">
          <mxGeometry x="0.6839" y="-2" relative="1" as="geometry">
            <mxPoint x="11" as="offset" />
          </mxGeometry>
        </mxCell>
        <mxCell id="5zv3vgf50802ribYR8mL-87" style="edgeStyle=orthogonalEdgeStyle;rounded=0;orthogonalLoop=1;jettySize=auto;html=1;exitX=1;exitY=0.5;exitDx=0;exitDy=0;entryX=0.5;entryY=0;entryDx=0;entryDy=0;fontFamily=SF Mono;startArrow=none;startFill=0;endArrow=blockThin;endFill=1;" edge="1" parent="H7fMK3qKQ8lKwxVsyXLL-1" source="5zv3vgf50802ribYR8mL-37" target="5zv3vgf50802ribYR8mL-81">
          <mxGeometry relative="1" as="geometry">
            <Array as="points">
              <mxPoint x="1020" y="577" />
            </Array>
          </mxGeometry>
        </mxCell>
        <mxCell id="5zv3vgf50802ribYR8mL-88" style="edgeStyle=orthogonalEdgeStyle;rounded=0;orthogonalLoop=1;jettySize=auto;html=1;exitX=1;exitY=0.5;exitDx=0;exitDy=0;entryX=0.5;entryY=0;entryDx=0;entryDy=0;fontFamily=SF Mono;startArrow=none;startFill=0;endArrow=blockThin;endFill=1;" edge="1" parent="H7fMK3qKQ8lKwxVsyXLL-1" source="5zv3vgf50802ribYR8mL-95" target="5zv3vgf50802ribYR8mL-6">
          <mxGeometry relative="1" as="geometry" />
        </mxCell>
        <mxCell id="5zv3vgf50802ribYR8mL-89" style="edgeStyle=orthogonalEdgeStyle;rounded=0;orthogonalLoop=1;jettySize=auto;html=1;exitX=1;exitY=0.5;exitDx=0;exitDy=0;entryX=0.5;entryY=0;entryDx=0;entryDy=0;fontFamily=SF Mono;startArrow=none;startFill=0;endArrow=blockThin;endFill=1;" edge="1" parent="H7fMK3qKQ8lKwxVsyXLL-1" source="5zv3vgf50802ribYR8mL-52" target="5zv3vgf50802ribYR8mL-6">
          <mxGeometry relative="1" as="geometry">
            <Array as="points">
              <mxPoint x="480" y="409" />
              <mxPoint x="480" y="220" />
              <mxPoint x="760" y="220" />
            </Array>
          </mxGeometry>
        </mxCell>
        <mxCell id="5zv3vgf50802ribYR8mL-90" style="edgeStyle=orthogonalEdgeStyle;rounded=0;orthogonalLoop=1;jettySize=auto;html=1;exitX=1;exitY=0.5;exitDx=0;exitDy=0;entryX=0.475;entryY=0.962;entryDx=0;entryDy=0;entryPerimeter=0;fontFamily=SF Mono;startArrow=none;startFill=0;endArrow=blockThin;endFill=1;" edge="1" parent="H7fMK3qKQ8lKwxVsyXLL-1" source="5zv3vgf50802ribYR8mL-69" target="5zv3vgf50802ribYR8mL-26">
          <mxGeometry relative="1" as="geometry" />
        </mxCell>
        <mxCell id="5zv3vgf50802ribYR8mL-91" style="edgeStyle=orthogonalEdgeStyle;rounded=0;orthogonalLoop=1;jettySize=auto;html=1;exitX=0;exitY=0.5;exitDx=0;exitDy=0;entryX=0.5;entryY=0;entryDx=0;entryDy=0;fontFamily=SF Mono;startArrow=none;startFill=0;endArrow=blockThin;endFill=1;" edge="1" parent="H7fMK3qKQ8lKwxVsyXLL-1" source="5zv3vgf50802ribYR8mL-17" target="5zv3vgf50802ribYR8mL-60">
          <mxGeometry relative="1" as="geometry" />
        </mxCell>
        <mxCell id="5zv3vgf50802ribYR8mL-92" value="&amp;nbsp;&amp;nbsp;" style="edgeLabel;html=1;align=center;verticalAlign=middle;resizable=0;points=[];fontFamily=SF Mono;" vertex="1" connectable="0" parent="5zv3vgf50802ribYR8mL-91">
          <mxGeometry x="-0.5739" y="1" relative="1" as="geometry">
            <mxPoint x="10" as="offset" />
          </mxGeometry>
        </mxCell>
        <mxCell id="5zv3vgf50802ribYR8mL-93" value="&amp;nbsp;&amp;nbsp;" style="edgeLabel;html=1;align=center;verticalAlign=middle;resizable=0;points=[];fontFamily=SF Mono;" vertex="1" connectable="0" parent="5zv3vgf50802ribYR8mL-91">
          <mxGeometry x="-0.7274" relative="1" as="geometry">
            <mxPoint x="-9" as="offset" />
          </mxGeometry>
        </mxCell>
        <mxCell id="5zv3vgf50802ribYR8mL-94" value="clients" style="swimlane;fontStyle=0;childLayout=stackLayout;horizontal=1;startSize=26;horizontalStack=0;resizeParent=1;resizeParentMax=0;resizeLast=0;collapsible=1;marginBottom=0;fontFamily=SF Mono;" vertex="1" parent="H7fMK3qKQ8lKwxVsyXLL-1">
          <mxGeometry x="520" y="300" width="120" height="156" as="geometry">
            <mxRectangle x="240" y="150" width="60" height="26" as="alternateBounds" />
          </mxGeometry>
        </mxCell>
        <mxCell id="5zv3vgf50802ribYR8mL-95" value="forms" style="text;align=left;verticalAlign=top;spacingLeft=4;spacingRight=4;overflow=hidden;rotatable=0;points=[[0,0.5],[1,0.5]];portConstraint=eastwest;fontFamily=SF Mono;fillColor=#ffe6cc;strokeColor=#d79b00;" vertex="1" parent="5zv3vgf50802ribYR8mL-94">
          <mxGeometry y="26" width="120" height="26" as="geometry" />
        </mxCell>
        <mxCell id="5zv3vgf50802ribYR8mL-96" value="ICO" style="text;strokeColor=#666666;align=left;verticalAlign=top;spacingLeft=4;spacingRight=4;overflow=hidden;rotatable=0;points=[[0,0.5],[1,0.5]];portConstraint=eastwest;fontFamily=SF Mono;fillColor=#f5f5f5;fontColor=#333333;" vertex="1" parent="5zv3vgf50802ribYR8mL-94">
          <mxGeometry y="52" width="120" height="26" as="geometry" />
        </mxCell>
        <mxCell id="5zv3vgf50802ribYR8mL-97" value="companyID" style="text;strokeColor=#666666;align=left;verticalAlign=top;spacingLeft=4;spacingRight=4;overflow=hidden;rotatable=0;points=[[0,0.5],[1,0.5]];portConstraint=eastwest;fontFamily=SF Mono;fillColor=#f5f5f5;fontColor=#333333;" vertex="1" parent="5zv3vgf50802ribYR8mL-94">
          <mxGeometry y="78" width="120" height="26" as="geometry" />
        </mxCell>
        <mxCell id="5zv3vgf50802ribYR8mL-98" value="name" style="text;strokeColor=#666666;align=left;verticalAlign=top;spacingLeft=4;spacingRight=4;overflow=hidden;rotatable=0;points=[[0,0.5],[1,0.5]];portConstraint=eastwest;fontFamily=SF Mono;fillColor=#f5f5f5;fontColor=#333333;" vertex="1" parent="5zv3vgf50802ribYR8mL-94">
          <mxGeometry y="104" width="120" height="26" as="geometry" />
        </mxCell>
        <mxCell id="5zv3vgf50802ribYR8mL-99" value="members" style="text;strokeColor=#d79b00;align=left;verticalAlign=top;spacingLeft=4;spacingRight=4;overflow=hidden;rotatable=0;points=[[0,0.5],[1,0.5]];portConstraint=eastwest;fontFamily=SF Mono;fillColor=#ffe6cc;" vertex="1" parent="5zv3vgf50802ribYR8mL-94">
          <mxGeometry y="130" width="120" height="26" as="geometry" />
        </mxCell>
        <mxCell id="5zv3vgf50802ribYR8mL-100" style="edgeStyle=orthogonalEdgeStyle;rounded=0;orthogonalLoop=1;jettySize=auto;html=1;exitX=0;exitY=0.5;exitDx=0;exitDy=0;entryX=0.5;entryY=0;entryDx=0;entryDy=0;fontFamily=SF Mono;startArrow=none;startFill=0;endArrow=blockThin;endFill=1;" edge="1" parent="H7fMK3qKQ8lKwxVsyXLL-1" source="5zv3vgf50802ribYR8mL-15" target="5zv3vgf50802ribYR8mL-60">
          <mxGeometry relative="1" as="geometry" />
        </mxCell>
        <mxCell id="5zv3vgf50802ribYR8mL-101" value="&amp;nbsp;&amp;nbsp;" style="edgeLabel;html=1;align=center;verticalAlign=middle;resizable=0;points=[];fontFamily=SF Mono;" vertex="1" connectable="0" parent="5zv3vgf50802ribYR8mL-100">
          <mxGeometry x="-0.7592" y="-2" relative="1" as="geometry">
            <mxPoint x="-10" as="offset" />
          </mxGeometry>
        </mxCell>
        <mxCell id="5zv3vgf50802ribYR8mL-102" value="&amp;nbsp;&amp;nbsp;" style="edgeLabel;html=1;align=center;verticalAlign=middle;resizable=0;points=[];fontFamily=SF Mono;" vertex="1" connectable="0" parent="5zv3vgf50802ribYR8mL-100">
          <mxGeometry x="-0.6056" y="-2" relative="1" as="geometry">
            <mxPoint x="12" as="offset" />
          </mxGeometry>
        </mxCell>
        <mxCell id="5zv3vgf50802ribYR8mL-103" value="&amp;nbsp; &amp;nbsp;" style="edgeLabel;html=1;align=center;verticalAlign=middle;resizable=0;points=[];fontFamily=SF Mono;" vertex="1" connectable="0" parent="5zv3vgf50802ribYR8mL-100">
          <mxGeometry x="-0.3229" y="-1" relative="1" as="geometry">
            <mxPoint x="-21" as="offset" />
          </mxGeometry>
        </mxCell>
        <mxCell id="5zv3vgf50802ribYR8mL-104" style="edgeStyle=orthogonalEdgeStyle;rounded=0;orthogonalLoop=1;jettySize=auto;html=1;exitX=1;exitY=0.5;exitDx=0;exitDy=0;entryX=0.5;entryY=0.962;entryDx=0;entryDy=0;entryPerimeter=0;fontFamily=SF Mono;startArrow=none;startFill=0;endArrow=blockThin;endFill=1;" edge="1" parent="H7fMK3qKQ8lKwxVsyXLL-1" source="5zv3vgf50802ribYR8mL-67" target="5zv3vgf50802ribYR8mL-99">
          <mxGeometry relative="1" as="geometry" />
        </mxCell>
        <mxCell id="5zv3vgf50802ribYR8mL-105" value="rewards" style="swimlane;fontStyle=0;childLayout=stackLayout;horizontal=1;startSize=26;horizontalStack=0;resizeParent=1;resizeParentMax=0;resizeLast=0;collapsible=1;marginBottom=0;fontFamily=SF Mono;" vertex="1" parent="H7fMK3qKQ8lKwxVsyXLL-1">
          <mxGeometry x="540" y="610" width="120" height="182" as="geometry">
            <mxRectangle x="240" y="150" width="60" height="26" as="alternateBounds" />
          </mxGeometry>
        </mxCell>
        <mxCell id="5zv3vgf50802ribYR8mL-106" value="description" style="text;align=left;verticalAlign=top;spacingLeft=4;spacingRight=4;overflow=hidden;rotatable=0;points=[[0,0.5],[1,0.5]];portConstraint=eastwest;fontFamily=SF Mono;fillColor=#f5f5f5;strokeColor=#666666;fontColor=#333333;" vertex="1" parent="5zv3vgf50802ribYR8mL-105">
          <mxGeometry y="26" width="120" height="26" as="geometry" />
        </mxCell>
        <mxCell id="5zv3vgf50802ribYR8mL-107" value="id" style="text;strokeColor=#666666;align=left;verticalAlign=top;spacingLeft=4;spacingRight=4;overflow=hidden;rotatable=0;points=[[0,0.5],[1,0.5]];portConstraint=eastwest;fontFamily=SF Mono;fillColor=#f5f5f5;fontColor=#333333;" vertex="1" parent="5zv3vgf50802ribYR8mL-105">
          <mxGeometry y="52" width="120" height="26" as="geometry" />
        </mxCell>
        <mxCell id="5zv3vgf50802ribYR8mL-108" value="image" style="text;strokeColor=#666666;align=left;verticalAlign=top;spacingLeft=4;spacingRight=4;overflow=hidden;rotatable=0;points=[[0,0.5],[1,0.5]];portConstraint=eastwest;fontFamily=SF Mono;fillColor=#f5f5f5;fontColor=#333333;" vertex="1" parent="5zv3vgf50802ribYR8mL-105">
          <mxGeometry y="78" width="120" height="26" as="geometry" />
        </mxCell>
        <mxCell id="5zv3vgf50802ribYR8mL-109" value="max_validity?" style="text;strokeColor=#666666;align=left;verticalAlign=top;spacingLeft=4;spacingRight=4;overflow=hidden;rotatable=0;points=[[0,0.5],[1,0.5]];portConstraint=eastwest;fontFamily=SF Mono;fillColor=#f5f5f5;fontColor=#333333;" vertex="1" parent="5zv3vgf50802ribYR8mL-105">
          <mxGeometry y="104" width="120" height="26" as="geometry" />
        </mxCell>
        <mxCell id="5zv3vgf50802ribYR8mL-110" value="text" style="text;strokeColor=#666666;align=left;verticalAlign=top;spacingLeft=4;spacingRight=4;overflow=hidden;rotatable=0;points=[[0,0.5],[1,0.5]];portConstraint=eastwest;fontFamily=SF Mono;fillColor=#f5f5f5;fontColor=#333333;" vertex="1" parent="5zv3vgf50802ribYR8mL-105">
          <mxGeometry y="130" width="120" height="26" as="geometry" />
        </mxCell>
        <mxCell id="5zv3vgf50802ribYR8mL-111" value="validity?" style="text;strokeColor=#666666;align=left;verticalAlign=top;spacingLeft=4;spacingRight=4;overflow=hidden;rotatable=0;points=[[0,0.5],[1,0.5]];portConstraint=eastwest;fontFamily=SF Mono;fillColor=#f5f5f5;fontColor=#333333;" vertex="1" parent="5zv3vgf50802ribYR8mL-105">
          <mxGeometry y="156" width="120" height="26" as="geometry" />
        </mxCell>
        <mxCell id="5zv3vgf50802ribYR8mL-112" style="edgeStyle=orthogonalEdgeStyle;rounded=0;orthogonalLoop=1;jettySize=auto;html=1;entryX=0.5;entryY=0;entryDx=0;entryDy=0;fontFamily=SF Mono;startArrow=none;startFill=0;endArrow=openThin;endFill=0;" edge="1" parent="H7fMK3qKQ8lKwxVsyXLL-1" target="5zv3vgf50802ribYR8mL-105">
          <mxGeometry relative="1" as="geometry">
            <mxPoint x="680" y="590" as="sourcePoint" />
          </mxGeometry>
        </mxCell>
        <mxCell id="5zv3vgf50802ribYR8mL-113" value="&amp;nbsp;&amp;nbsp;" style="edgeLabel;html=1;align=center;verticalAlign=middle;resizable=0;points=[];fontFamily=SF Mono;" vertex="1" connectable="0" parent="5zv3vgf50802ribYR8mL-112">
          <mxGeometry x="0.32" y="1" relative="1" as="geometry">
            <mxPoint x="-14" as="offset" />
          </mxGeometry>
        </mxCell>
        <mxCell id="5zv3vgf50802ribYR8mL-114" style="edgeStyle=orthogonalEdgeStyle;rounded=0;orthogonalLoop=1;jettySize=auto;html=1;exitX=1;exitY=0.5;exitDx=0;exitDy=0;entryX=0.5;entryY=0;entryDx=0;entryDy=0;fontFamily=SF Mono;startArrow=none;startFill=0;endArrow=blockThin;endFill=1;" edge="1" parent="H7fMK3qKQ8lKwxVsyXLL-1" source="5zv3vgf50802ribYR8mL-54" target="5zv3vgf50802ribYR8mL-105">
          <mxGeometry relative="1" as="geometry">
            <Array as="points">
              <mxPoint x="600" y="461" />
            </Array>
          </mxGeometry>
        </mxCell>
        <mxCell id="5zv3vgf50802ribYR8mL-115" value="&amp;nbsp; &amp;nbsp;" style="edgeLabel;html=1;align=center;verticalAlign=middle;resizable=0;points=[];fontFamily=SF Mono;" vertex="1" connectable="0" parent="5zv3vgf50802ribYR8mL-114">
          <mxGeometry x="-0.9223" y="-1" relative="1" as="geometry">
            <mxPoint x="13" as="offset" />
          </mxGeometry>
        </mxCell>
        <mxCell id="5zv3vgf50802ribYR8mL-116" style="edgeStyle=orthogonalEdgeStyle;rounded=0;orthogonalLoop=1;jettySize=auto;html=1;exitX=0;exitY=0.5;exitDx=0;exitDy=0;entryX=0.5;entryY=0;entryDx=0;entryDy=0;fontFamily=SF Mono;startArrow=none;startFill=0;endArrow=blockThin;endFill=1;" edge="1" parent="H7fMK3qKQ8lKwxVsyXLL-1" source="5zv3vgf50802ribYR8mL-99" target="5zv3vgf50802ribYR8mL-118">
          <mxGeometry relative="1" as="geometry" />
        </mxCell>
        <mxCell id="5zv3vgf50802ribYR8mL-117" style="edgeStyle=orthogonalEdgeStyle;rounded=0;orthogonalLoop=1;jettySize=auto;html=1;exitX=1;exitY=0.5;exitDx=0;exitDy=0;entryX=0.5;entryY=0;entryDx=0;entryDy=0;fontFamily=SF Mono;startArrow=none;startFill=0;endArrow=blockThin;endFill=1;" edge="1" parent="H7fMK3qKQ8lKwxVsyXLL-1" source="5zv3vgf50802ribYR8mL-53" target="5zv3vgf50802ribYR8mL-65">
          <mxGeometry relative="1" as="geometry">
            <Array as="points">
              <mxPoint x="460" y="435" />
              <mxPoint x="460" y="710" />
              <mxPoint x="400" y="710" />
            </Array>
          </mxGeometry>
        </mxCell>
        <mxCell id="5zv3vgf50802ribYR8mL-118" value="members" style="swimlane;fontStyle=0;childLayout=stackLayout;horizontal=1;startSize=26;horizontalStack=0;resizeParent=1;resizeParentMax=0;resizeLast=0;collapsible=1;marginBottom=0;fontFamily=SF Mono;" vertex="1" parent="H7fMK3qKQ8lKwxVsyXLL-1">
          <mxGeometry x="400" y="500" width="140" height="78" as="geometry">
            <mxRectangle x="240" y="150" width="60" height="26" as="alternateBounds" />
          </mxGeometry>
        </mxCell>
        <mxCell id="5zv3vgf50802ribYR8mL-119" value="user" style="text;align=left;verticalAlign=top;spacingLeft=4;spacingRight=4;overflow=hidden;rotatable=0;points=[[0,0.5],[1,0.5]];portConstraint=eastwest;fontFamily=SF Mono;fillColor=#ffe6cc;strokeColor=#d79b00;" vertex="1" parent="5zv3vgf50802ribYR8mL-118">
          <mxGeometry y="26" width="140" height="26" as="geometry" />
        </mxCell>
        <mxCell id="5zv3vgf50802ribYR8mL-120" value="role" style="text;strokeColor=#6c8ebf;align=left;verticalAlign=top;spacingLeft=4;spacingRight=4;overflow=hidden;rotatable=0;points=[[0,0.5],[1,0.5]];portConstraint=eastwest;fontFamily=SF Mono;fillColor=#dae8fc;" vertex="1" parent="5zv3vgf50802ribYR8mL-118">
          <mxGeometry y="52" width="140" height="26" as="geometry" />
        </mxCell>
        <mxCell id="5zv3vgf50802ribYR8mL-121" value="reference" style="rounded=0;whiteSpace=wrap;html=1;fontFamily=SF Mono;fillColor=#ffe6cc;strokeColor=#d79b00;" vertex="1" parent="H7fMK3qKQ8lKwxVsyXLL-1">
          <mxGeometry x="390" y="170" width="100" height="20" as="geometry" />
        </mxCell>
        <mxCell id="5zv3vgf50802ribYR8mL-122" value="boolean" style="rounded=0;whiteSpace=wrap;html=1;fontFamily=SF Mono;fillColor=#e1d5e7;strokeColor=#9673a6;" vertex="1" parent="H7fMK3qKQ8lKwxVsyXLL-1">
          <mxGeometry x="510" y="170" width="100" height="20" as="geometry" />
        </mxCell>
        <mxCell id="5zv3vgf50802ribYR8mL-123" value="object" style="rounded=0;whiteSpace=wrap;html=1;fontFamily=SF Mono;fillColor=#d5e8d4;strokeColor=#82b366;" vertex="1" parent="H7fMK3qKQ8lKwxVsyXLL-1">
          <mxGeometry x="630" y="170" width="100" height="20" as="geometry" />
        </mxCell>
        <mxCell id="5zv3vgf50802ribYR8mL-124" value="text" style="rounded=0;whiteSpace=wrap;html=1;fontFamily=SF Mono;fillColor=#f5f5f5;strokeColor=#666666;fontColor=#333333;" vertex="1" parent="H7fMK3qKQ8lKwxVsyXLL-1">
          <mxGeometry x="750" y="170" width="100" height="20" as="geometry" />
        </mxCell>
      </root>
    </mxGraphModel>
  </diagram>
</mxfile>
